<svg xmlns="http://www.w3.org/2000/svg" xmlns:xlink="http://www.w3.org/1999/xlink" version="1.1" width="1041px" height="842px" viewBox="-0.5 -0.5 1041 842" content="&lt;mxfile&gt;&lt;diagram id=&quot;nsF3EkEgO6K0eGQtcs9W&quot; name=&quot;Page-1&quot;&gt;7Vxbd9o4EP41eQxHF0u2H3Mh3d3TbnOSnt320YAAnxqLNSYJ/fUrYwkbjyEE3whpHlo8loT0faPRzEjigt7MXj5F3nz6RY5EcEHQ6OWC3l4QQpHL1H+JZKUlxHZSySTyR6kMZ4JH/5fQQqSlS38kFlsFYymD2J9vC4cyDMUw3pJ5USSft4uNZbD9rXNvIoDgcegFUPqvP4qnqdRhKJP/IfzJ1HwzRvrNzDOFtWAx9UbyOSei/Qt6E0kZp59mLzciSNAzuKT17na83XQsEmF8SAVK0hpPXrDUg9Mdi1dmtJFchiORVMAX9Pp56sfice4Nk7fPimAlm8azQL8e+0FwIwMZretShBxPDZ5eL+JI/hRbb5i9fjOWYZyTj9d/Sg6Hokf3JKJYvOREemifhJyJOFqpIvrtpWNw1pp2STDXkueMOIwsLZzmWHOM0NPaMtm0nwGqPmhMy/FlLsD3ixqPGixBf8llFIpVRbwVenqCYA7xxwMPC1KOP+9f3e3BP4HZVzp/FfiTUL0byDiWs6Qp1Rk/nHwW4wQp4maia13kliRd83TFYF2wFj5tp8An5hjyyVkJnZspV4lOp5ROId4fnbGcZ8Q9aJzwekY2w5SDSI8dxhW2N0UrsWUDtm6kjEZ+6L3LGZhSVgc7jAG7SOE8omXcUFzHPGKQmeVC2Q7xoWnBxUlDECmbNNQumzS8BmKgO3DrLaYD6UUjQIfyXebJx+Eq8BUvEX2dlEHK4OfBRuANf07WvH5dxqoZoeULzRzLbNS3BOZbWhfUvGifXFoGtVuCdB1AUwB0/0kNZ3FeKAOQbQLNTFMQm/7mwBQj5cfrRxnFUzmRoRf0M2keRvHix9/VZ9Rj+ulH7s1tMkZkHla5h3sR+aqzIjKyUHX8u6maPPzIWk0es6bWT6v8U7Gx1FyZqCM1YF4UXyVRjRL0H36JSH6TX7xwZd7d+QlEuslRVlImepCIcgV2kr5QNnmoUbRSkWp7InQpvdIm+O5VjEgEXuw/bcdRVUjGTk0k5yjOCD+C5ByvP7ZorZPklLq97G7pwREkc0iy0xnJbj0k498kv0pyZzOZgxVxlx/4vpdE7hbXREZaWxNhRPQgtEKcFcrMLqLM7PacOxM3nY69qsHzCLyBCK43hJrIKDRmqmjNigFY+9bNOSHrBhNH90ku+Kwmnc26nHQw03pzblFrxzErhqvHXjunTUPesL0WfxxkJKCtOcgcmMRV3h5g3JVBML3JgfnnSHXfj7tzeCaRN/JFlvXSBOZTZyMx9pZB3Jh35IIMGKetKTipad2uMZi0XDu/dl+iHmJOt+HG12PzBmay5Scg72r+vWK72s8OnUtMWcYyq5tlXfVe+qonmfmwkFVYIR0GtpLSzuqqBYXZ9OUwHaJN6BB6sw6dQlKwjHZcO+8Hp9ctsLrO9L57FcJqjoGq0VIe3eE9duMSs12WI1NFbB1m0C6tHmU7FLKwdXaz/qukSYf6acYSoB6llBWMgV7eK1sZpxjnOHDDeoeVUZR6q1yxeVJgse/LLF78Mst82d2uSoyAHh5VybG3K6kP6QAKTZjRyPF4IapaVcN1PlaOpHJCzyxHZYFwueVwjgCc++FQAZHM47NCmtrFOdRmYoLWFVVU9BJ2eZr7VozT9jRpyUJBunI5MNzSvw+8sLOZ1MzEsXiLBgo6cY/LwWIY+fPYl90h28yORbe5PbOp/zscrttIMWikOrNRJhA/muVcYipLQ5nEFCInSFJdink02caKNZ78IOBQJyqe1awx9QG3638bkLfqZi49QMmr6YWjNdDtytxQ6BJdEG52D8ItbeH/LZNLL2tMLtPV9koVwHz+sh67ea8+TZL/54opL+lO2p7qStpk+rYmXcz720fk8Suki+hxyrY/T9Qj3NqaEz1EjttMyHtAbuWET5nVfHvCh2/yMm+zpLtTMjBXUm+iY98p+HPybWlx45ogF7fn2h6wbZ3AMq82/M11Q29gWkX7YYEJIJvbB8Hi1gALDK4e1KQJJ52pHoR6w9zrqmaukrZ3vBxO3r9l3F2KshJ6bWTBIF7/iGih4vju7jwU7gR5RIUwbLMy597wO4T2XlZt5/YEc9tTbwod/H64VEtTcnfuHChrhCHeogGiB6xrceR74WTt31a7L5eA5jhlQFNOXaq6dB3J2Fvn5ZKNRieBXntSqhi7vmC3dXkTTiEpSRDnAHVcgnodVxctcrKouw1iDi7SIwzPZTWGOVw7TgXzywZBt3DRP3QQLskJNwb7ATme81N1iDpnraJ+uma9SQNDwU5TibPTGObweP4HwJxRoOlui0YdHtj/AJjb0Lq4pDXMGTxacyqYNwc5B2q++fmLNiA/XX+xSd+Fg8Nktmu1uIqysq2H84edUXAA2i47RtAY7DCreDKwpwdbG3IaXaeAu9uq00ir/tZFq7umMy8cfT1yM2uzTeyw6ueUd1L/6nlkrdY1b+q/+XQwdUhxvls0rzglVYyu7Kqyfcj3iH0t62PaXhjCcNSen2Eyih8MdBitu9xpD3ToT5vfAyxA3/H+bcluJcB9N8jELmT/MLOgZjeV5+YHeNBvXOwOutN45F3kWpfSsl+C2LPU4f0LXWG1Ou7CZkOn11jx5i92XbvHbNslBK3/3W5yx1G2sgs0wEJgu7dpFZnfHjYNp4OtfnFns0Ocv05T6zrL3+s6W9EaUWCNHKspk68es19jTjnKftSa9v8H&lt;/diagram&gt;&lt;/mxfile&gt;"><defs/><g><rect x="0" y="0" width="1040" height="840" rx="126" ry="126" fill="#008a00" stroke="#005700" pointer-events="all"/><rect x="40" y="550" width="650" height="220" rx="33" ry="33" fill="#1ba1e2" stroke="#006eaf" pointer-events="all"/><g transform="translate(-0.5 -0.5)"><switch><foreignObject pointer-events="none" width="100%" height="100%" requiredFeatures="http://www.w3.org/TR/SVG11/feature#Extensibility" style="overflow: visible; text-align: left;"><div xmlns="http://www.w3.org/1999/xhtml" style="display: flex; align-items: unsafe flex-end; justify-content: unsafe flex-start; width: 619px; height: 1px; padding-top: 746px; margin-left: 71px;"><div data-drawio-colors="color: #ffffff; " style="box-sizing: border-box; font-size: 0px; text-align: left;"><div style="display: inline-block; font-size: 16px; font-family: Helvetica; color: rgb(255, 255, 255); line-height: 1.2; pointer-events: all; white-space: normal; overflow-wrap: normal;">Mentor Journey</div></div></div></foreignObject><text x="71" y="746" fill="#ffffff" font-family="Helvetica" font-size="16px">Mentor Journey</text></switch></g><rect x="40" y="357.5" width="650" height="172.5" rx="25.88" ry="25.88" fill="#1ba1e2" stroke="#006eaf" pointer-events="all"/><g transform="translate(-0.5 -0.5)"><switch><foreignObject pointer-events="none" width="100%" height="100%" requiredFeatures="http://www.w3.org/TR/SVG11/feature#Extensibility" style="overflow: visible; text-align: left;"><div xmlns="http://www.w3.org/1999/xhtml" style="display: flex; align-items: unsafe flex-start; justify-content: unsafe center; width: 548px; height: 1px; padding-top: 365px; margin-left: 41px;"><div data-drawio-colors="color: #ffffff; " style="box-sizing: border-box; font-size: 0px; text-align: center;"><div style="display: inline-block; font-size: 16px; font-family: Helvetica; color: rgb(255, 255, 255); line-height: 1.2; pointer-events: all; white-space: normal; overflow-wrap: normal;">Mentee Journey</div></div></div></foreignObject><text x="315" y="381" fill="#ffffff" font-family="Helvetica" font-size="16px" text-anchor="middle">Mentee Journey</text></switch></g><rect x="270" y="30" width="350" height="310" rx="46.5" ry="46.5" fill="#1ba1e2" stroke="#006eaf" pointer-events="all"/><g transform="translate(-0.5 -0.5)"><switch><foreignObject pointer-events="none" width="100%" height="100%" requiredFeatures="http://www.w3.org/TR/SVG11/feature#Extensibility" style="overflow: visible; text-align: left;"><div xmlns="http://www.w3.org/1999/xhtml" style="display: flex; align-items: unsafe flex-start; justify-content: unsafe center; width: 348px; height: 1px; padding-top: 37px; margin-left: 271px;"><div data-drawio-colors="color: #ffffff; " style="box-sizing: border-box; font-size: 0px; text-align: center;"><div style="display: inline-block; font-size: 16px; font-family: Helvetica; color: rgb(255, 255, 255); line-height: 1.2; pointer-events: all; white-space: normal; overflow-wrap: normal;">Coordinator Journey</div></div></div></foreignObject><text x="445" y="53" fill="#ffffff" font-family="Helvetica" font-size="16px" text-anchor="middle">Coordinator Journey</text></switch></g><rect x="640" y="137.5" width="370" height="160" rx="24" ry="24" fill="#1ba1e2" stroke="#006eaf" pointer-events="all"/><g transform="translate(-0.5 -0.5)"><switch><foreignObject pointer-events="none" width="100%" height="100%" requiredFeatures="http://www.w3.org/TR/SVG11/feature#Extensibility" style="overflow: visible; text-align: left;"><div xmlns="http://www.w3.org/1999/xhtml" style="display: flex; align-items: unsafe flex-start; justify-content: unsafe center; width: 368px; height: 1px; padding-top: 145px; margin-left: 641px;"><div data-drawio-colors="color: #ffffff; " style="box-sizing: border-box; font-size: 0px; text-align: center;"><div style="display: inline-block; font-size: 16px; font-family: Helvetica; color: rgb(255, 255, 255); line-height: 1.2; pointer-events: all; white-space: normal; overflow-wrap: normal;">Customer Journey</div></div></div></foreignObject><text x="825" y="161" fill="#ffffff" font-family="Helvetica" font-size="16px" text-anchor="middle">Customer Journey</text></switch></g><path d="M 660 242.5 C 660 234.22 680.15 227.5 705 227.5 C 716.93 227.5 728.38 229.08 736.82 231.89 C 745.26 234.71 750 238.52 750 242.5 L 750 272.5 C 750 280.78 729.85 287.5 705 287.5 C 680.15 287.5 660 280.78 660 272.5 Z" fill="rgb(255, 255, 255)" stroke="rgb(0, 0, 0)" stroke-miterlimit="10" pointer-events="all"/><path d="M 750 242.5 C 750 250.78 729.85 257.5 705 257.5 C 680.15 257.5 660 250.78 660 242.5" fill="none" stroke="rgb(0, 0, 0)" stroke-miterlimit="10" pointer-events="all"/><g transform="translate(-0.5 -0.5)"><switch><foreignObject pointer-events="none" width="100%" height="100%" requiredFeatures="http://www.w3.org/TR/SVG11/feature#Extensibility" style="overflow: visible; text-align: left;"><div xmlns="http://www.w3.org/1999/xhtml" style="display: flex; align-items: unsafe center; justify-content: unsafe center; width: 88px; height: 1px; padding-top: 269px; margin-left: 661px;"><div data-drawio-colors="color: rgb(0, 0, 0); " style="box-sizing: border-box; font-size: 0px; text-align: center;"><div style="display: inline-block; font-size: 12px; font-family: Helvetica; color: rgb(0, 0, 0); line-height: 1.2; pointer-events: all; white-space: normal; overflow-wrap: normal;">Dashboard</div></div></div></foreignObject><text x="705" y="273" fill="rgb(0, 0, 0)" font-family="Helvetica" font-size="12px" text-anchor="middle">Dashboard</text></switch></g><path d="M 760 455 C 760 446.72 780.15 440 805 440 C 816.93 440 828.38 441.58 836.82 444.39 C 845.26 447.21 850 451.02 850 455 L 850 485 C 850 493.28 829.85 500 805 500 C 780.15 500 760 493.28 760 485 Z" fill="rgb(255, 255, 255)" stroke="rgb(0, 0, 0)" stroke-miterlimit="10" pointer-events="all"/><path d="M 850 455 C 850 463.28 829.85 470 805 470 C 780.15 470 760 463.28 760 455" fill="none" stroke="rgb(0, 0, 0)" stroke-miterlimit="10" pointer-events="all"/><g transform="translate(-0.5 -0.5)"><switch><foreignObject pointer-events="none" width="100%" height="100%" requiredFeatures="http://www.w3.org/TR/SVG11/feature#Extensibility" style="overflow: visible; text-align: left;"><div xmlns="http://www.w3.org/1999/xhtml" style="display: flex; align-items: unsafe center; justify-content: unsafe center; width: 88px; height: 1px; padding-top: 482px; margin-left: 761px;"><div data-drawio-colors="color: rgb(0, 0, 0); " style="box-sizing: border-box; font-size: 0px; text-align: center;"><div style="display: inline-block; font-size: 12px; font-family: Helvetica; color: rgb(0, 0, 0); line-height: 1.2; pointer-events: all; white-space: normal; overflow-wrap: normal;">Events</div></div></div></foreignObject><text x="805" y="485" fill="rgb(0, 0, 0)" font-family="Helvetica" font-size="12px" text-anchor="middle">Events</text></switch></g><path d="M 406 500 L 406 605 Q 406 615 396 615 L 331 615" fill="none" stroke="rgb(0, 0, 0)" stroke-width="2" stroke-miterlimit="10" pointer-events="stroke"/><ellipse cx="406" cy="496.5" rx="3" ry="3" fill="none" stroke="rgb(0, 0, 0)" stroke-width="2" pointer-events="all"/><path d="M 401.5 483 L 406 492 L 410.5 483 M 406 492 L 406 483" fill="none" stroke="rgb(0, 0, 0)" stroke-width="2" stroke-miterlimit="10" pointer-events="all"/><path d="M 335.5 610.5 L 335.5 619.5" fill="none" stroke="rgb(0, 0, 0)" stroke-width="2" stroke-miterlimit="10" pointer-events="all"/><path d="M 151 438 L 116 438 Q 106 438 106 448 L 106 568" fill="none" stroke="rgb(0, 0, 0)" stroke-width="2" stroke-miterlimit="10" pointer-events="stroke"/><path d="M 146.5 442.5 L 146.5 433.5" fill="none" stroke="rgb(0, 0, 0)" stroke-width="2" stroke-miterlimit="10" pointer-events="all"/><ellipse cx="106" cy="571.5" rx="3" ry="3" fill="none" stroke="rgb(0, 0, 0)" stroke-width="2" pointer-events="all"/><path d="M 110.5 585 L 106 576 L 101.5 585 M 106 576 L 106 585" fill="none" stroke="rgb(0, 0, 0)" stroke-width="2" stroke-miterlimit="10" pointer-events="all"/><path d="M 241 438 L 276 438 Q 286 438 286 448 L 286 568" fill="none" stroke="rgb(0, 0, 0)" stroke-width="2" stroke-miterlimit="10" pointer-events="stroke"/><path d="M 245.5 433.5 L 245.5 442.5" fill="none" stroke="rgb(0, 0, 0)" stroke-width="2" stroke-miterlimit="10" pointer-events="all"/><ellipse cx="286" cy="571.5" rx="3" ry="3" fill="none" stroke="rgb(0, 0, 0)" stroke-width="2" pointer-events="all"/><path d="M 290.5 585 L 286 576 L 281.5 585 M 286 576 L 286 585" fill="none" stroke="rgb(0, 0, 0)" stroke-width="2" stroke-miterlimit="10" pointer-events="all"/><path d="M 151 423 C 151 414.72 171.15 408 196 408 C 207.93 408 219.38 409.58 227.82 412.39 C 236.26 415.21 241 419.02 241 423 L 241 453 C 241 461.28 220.85 468 196 468 C 171.15 468 151 461.28 151 453 Z" fill="rgb(255, 255, 255)" stroke="rgb(0, 0, 0)" stroke-miterlimit="10" pointer-events="all"/><path d="M 241 423 C 241 431.28 220.85 438 196 438 C 171.15 438 151 431.28 151 423" fill="none" stroke="rgb(0, 0, 0)" stroke-miterlimit="10" pointer-events="all"/><g transform="translate(-0.5 -0.5)"><switch><foreignObject pointer-events="none" width="100%" height="100%" requiredFeatures="http://www.w3.org/TR/SVG11/feature#Extensibility" style="overflow: visible; text-align: left;"><div xmlns="http://www.w3.org/1999/xhtml" style="display: flex; align-items: unsafe center; justify-content: unsafe center; width: 88px; height: 1px; padding-top: 450px; margin-left: 152px;"><div data-drawio-colors="color: rgb(0, 0, 0); " style="box-sizing: border-box; font-size: 0px; text-align: center;"><div style="display: inline-block; font-size: 12px; font-family: Helvetica; color: rgb(0, 0, 0); line-height: 1.2; pointer-events: all; white-space: normal; overflow-wrap: normal;">Journey</div></div></div></foreignObject><text x="196" y="453" fill="rgb(0, 0, 0)" font-family="Helvetica" font-size="12px" text-anchor="middle">Journey</text></switch></g><path d="M 241 600 C 241 591.72 261.15 585 286 585 C 297.93 585 309.38 586.58 317.82 589.39 C 326.26 592.21 331 596.02 331 600 L 331 630 C 331 638.28 310.85 645 286 645 C 261.15 645 241 638.28 241 630 Z" fill="rgb(255, 255, 255)" stroke="rgb(0, 0, 0)" stroke-miterlimit="10" pointer-events="all"/><path d="M 331 600 C 331 608.28 310.85 615 286 615 C 261.15 615 241 608.28 241 600" fill="none" stroke="rgb(0, 0, 0)" stroke-miterlimit="10" pointer-events="all"/><g transform="translate(-0.5 -0.5)"><switch><foreignObject pointer-events="none" width="100%" height="100%" requiredFeatures="http://www.w3.org/TR/SVG11/feature#Extensibility" style="overflow: visible; text-align: left;"><div xmlns="http://www.w3.org/1999/xhtml" style="display: flex; align-items: unsafe center; justify-content: unsafe center; width: 88px; height: 1px; padding-top: 627px; margin-left: 242px;"><div data-drawio-colors="color: rgb(0, 0, 0); " style="box-sizing: border-box; font-size: 0px; text-align: center;"><div style="display: inline-block; font-size: 12px; font-family: Helvetica; color: rgb(0, 0, 0); line-height: 1.2; pointer-events: all; white-space: normal; overflow-wrap: normal;">Resource</div></div></div></foreignObject><text x="286" y="630" fill="rgb(0, 0, 0)" font-family="Helvetica" font-size="12px" text-anchor="middle">Resource</text></switch></g><path d="M 151 615 L 224 615" fill="none" stroke="rgb(0, 0, 0)" stroke-width="2" stroke-miterlimit="10" pointer-events="stroke"/><path d="M 155.5 610.5 L 155.5 619.5" fill="none" stroke="rgb(0, 0, 0)" stroke-width="2" stroke-miterlimit="10" pointer-events="all"/><ellipse cx="227.5" cy="615" rx="3" ry="3" fill="none" stroke="rgb(0, 0, 0)" stroke-width="2" pointer-events="all"/><path d="M 241 610.5 L 232 615 L 241 619.5 M 232 615 L 241 615" fill="none" stroke="rgb(0, 0, 0)" stroke-width="2" stroke-miterlimit="10" pointer-events="all"/><path d="M 61 600 C 61 591.72 81.15 585 106 585 C 117.93 585 129.38 586.58 137.82 589.39 C 146.26 592.21 151 596.02 151 600 L 151 630 C 151 638.28 130.85 645 106 645 C 81.15 645 61 638.28 61 630 Z" fill="rgb(255, 255, 255)" stroke="rgb(0, 0, 0)" stroke-miterlimit="10" pointer-events="all"/><path d="M 151 600 C 151 608.28 130.85 615 106 615 C 81.15 615 61 608.28 61 600" fill="none" stroke="rgb(0, 0, 0)" stroke-miterlimit="10" pointer-events="all"/><g transform="translate(-0.5 -0.5)"><switch><foreignObject pointer-events="none" width="100%" height="100%" requiredFeatures="http://www.w3.org/TR/SVG11/feature#Extensibility" style="overflow: visible; text-align: left;"><div xmlns="http://www.w3.org/1999/xhtml" style="display: flex; align-items: unsafe center; justify-content: unsafe center; width: 88px; height: 1px; padding-top: 627px; margin-left: 62px;"><div data-drawio-colors="color: rgb(0, 0, 0); " style="box-sizing: border-box; font-size: 0px; text-align: center;"><div style="display: inline-block; font-size: 12px; font-family: Helvetica; color: rgb(0, 0, 0); line-height: 1.2; pointer-events: all; white-space: normal; overflow-wrap: normal;">Path</div></div></div></foreignObject><text x="106" y="630" fill="rgb(0, 0, 0)" font-family="Helvetica" font-size="12px" text-anchor="middle">Path</text></switch></g><path d="M 880 242.5 C 880 234.22 900.15 227.5 925 227.5 C 936.93 227.5 948.38 229.08 956.82 231.89 C 965.26 234.71 970 238.52 970 242.5 L 970 272.5 C 970 280.78 949.85 287.5 925 287.5 C 900.15 287.5 880 280.78 880 272.5 Z" fill="rgb(255, 255, 255)" stroke="rgb(0, 0, 0)" stroke-miterlimit="10" pointer-events="all"/><path d="M 970 242.5 C 970 250.78 949.85 257.5 925 257.5 C 900.15 257.5 880 250.78 880 242.5" fill="none" stroke="rgb(0, 0, 0)" stroke-miterlimit="10" pointer-events="all"/><g transform="translate(-0.5 -0.5)"><switch><foreignObject pointer-events="none" width="100%" height="100%" requiredFeatures="http://www.w3.org/TR/SVG11/feature#Extensibility" style="overflow: visible; text-align: left;"><div xmlns="http://www.w3.org/1999/xhtml" style="display: flex; align-items: unsafe center; justify-content: unsafe center; width: 88px; height: 1px; padding-top: 269px; margin-left: 881px;"><div data-drawio-colors="color: rgb(0, 0, 0); " style="box-sizing: border-box; font-size: 0px; text-align: center;"><div style="display: inline-block; font-size: 12px; font-family: Helvetica; color: rgb(0, 0, 0); line-height: 1.2; pointer-events: all; white-space: normal; overflow-wrap: normal;">Card</div></div></div></foreignObject><text x="925" y="273" fill="rgb(0, 0, 0)" font-family="Helvetica" font-size="12px" text-anchor="middle">Card</text></switch></g><path d="M 220 152.42 L 361 232.08" fill="none" stroke="rgb(0, 0, 0)" stroke-width="2" stroke-miterlimit="10" pointer-events="stroke"/><path d="M 226.13 150.72 L 221.7 158.55" fill="none" stroke="rgb(0, 0, 0)" stroke-width="2" stroke-miterlimit="10" pointer-events="all"/><path d="M 354.87 233.78 L 359.3 225.95" fill="none" stroke="rgb(0, 0, 0)" stroke-width="2" stroke-miterlimit="10" pointer-events="all"/><path d="M 130 112 C 130 103.72 150.15 97 175 97 C 186.93 97 198.38 98.58 206.82 101.39 C 215.26 104.21 220 108.02 220 112 L 220 142 C 220 150.28 199.85 157 175 157 C 150.15 157 130 150.28 130 142 Z" fill="rgb(255, 255, 255)" stroke="rgb(0, 0, 0)" stroke-miterlimit="10" pointer-events="all"/><path d="M 220 112 C 220 120.28 199.85 127 175 127 C 150.15 127 130 120.28 130 112" fill="none" stroke="rgb(0, 0, 0)" stroke-miterlimit="10" pointer-events="all"/><g transform="translate(-0.5 -0.5)"><switch><foreignObject pointer-events="none" width="100%" height="100%" requiredFeatures="http://www.w3.org/TR/SVG11/feature#Extensibility" style="overflow: visible; text-align: left;"><div xmlns="http://www.w3.org/1999/xhtml" style="display: flex; align-items: unsafe center; justify-content: unsafe center; width: 88px; height: 1px; padding-top: 139px; margin-left: 131px;"><div data-drawio-colors="color: rgb(0, 0, 0); " style="box-sizing: border-box; font-size: 0px; text-align: center;"><div style="display: inline-block; font-size: 12px; font-family: Helvetica; color: rgb(0, 0, 0); line-height: 1.2; pointer-events: all; white-space: normal; overflow-wrap: normal;">Identity</div></div></div></foreignObject><text x="175" y="142" fill="rgb(0, 0, 0)" font-family="Helvetica" font-size="12px" text-anchor="middle">Identity</text></switch></g><path d="M 361 257.5 L 205.75 257.5 Q 195.75 257.5 195.75 267.5 L 195.73 387.52" fill="none" stroke="rgb(0, 0, 0)" stroke-width="2" stroke-miterlimit="10" pointer-events="stroke"/><path d="M 356.5 262 L 356.5 253" fill="none" stroke="rgb(0, 0, 0)" stroke-width="2" stroke-miterlimit="10" pointer-events="all"/><ellipse cx="195.73" cy="391.02" rx="3" ry="3" fill="none" stroke="rgb(0, 0, 0)" stroke-width="2" pointer-events="all"/><path d="M 191.23 400.02 L 200.23 400.02 M 195.73 394.52 L 195.73 404.52" fill="none" stroke="rgb(0, 0, 0)" stroke-width="2" stroke-miterlimit="10" pointer-events="all"/><path d="M 406 287.5 L 406 376" fill="none" stroke="rgb(0, 0, 0)" stroke-width="2" stroke-miterlimit="10" pointer-events="stroke"/><path d="M 410.5 292 L 401.5 292" fill="none" stroke="rgb(0, 0, 0)" stroke-width="2" stroke-miterlimit="10" pointer-events="all"/><ellipse cx="406" cy="379.5" rx="3" ry="3" fill="none" stroke="rgb(0, 0, 0)" stroke-width="2" pointer-events="all"/><path d="M 410.5 393 L 406 384 L 401.5 393 M 406 384 L 406 393" fill="none" stroke="rgb(0, 0, 0)" stroke-width="2" stroke-miterlimit="10" pointer-events="all"/><path d="M 406 210.5 L 406 188.25 Q 406 178.25 416 178.25 L 495 178.25 Q 505 178.25 505 168.25 L 505 129" fill="none" stroke="rgb(0, 0, 0)" stroke-width="2" stroke-miterlimit="10" pointer-events="stroke"/><ellipse cx="406" cy="214" rx="3" ry="3" fill="none" stroke="rgb(0, 0, 0)" stroke-width="2" pointer-events="all"/><path d="M 410.5 227.5 L 406 218.5 L 401.5 227.5 M 406 218.5 L 406 227.5" fill="none" stroke="rgb(0, 0, 0)" stroke-width="2" stroke-miterlimit="10" pointer-events="all"/><path d="M 509.5 133.5 L 500.5 133.5" fill="none" stroke="rgb(0, 0, 0)" stroke-width="2" stroke-miterlimit="10" pointer-events="all"/><path d="M 374.03 300.15 L 374.01 308.82 Q 374 317.5 364 317.5 L 301 317.5 Q 291 317.5 291 307.5 L 291 282.5 Q 291 272.5 301 272.5 L 361 272.5" fill="none" stroke="rgb(0, 0, 0)" stroke-width="2" stroke-miterlimit="10" pointer-events="stroke"/><ellipse cx="374.03" cy="296.65" rx="3" ry="3" fill="none" stroke="rgb(0, 0, 0)" stroke-width="2" pointer-events="all"/><path d="M 369.55 283.14 L 374.04 292.15 L 378.55 283.16 M 374.04 292.15 L 374.05 283.15" fill="none" stroke="rgb(0, 0, 0)" stroke-width="2" stroke-miterlimit="10" pointer-events="all"/><path d="M 356.5 277 L 356.5 268" fill="none" stroke="rgb(0, 0, 0)" stroke-width="2" stroke-miterlimit="10" pointer-events="all"/><g transform="translate(-0.5 -0.5)"><switch><foreignObject pointer-events="none" width="100%" height="100%" requiredFeatures="http://www.w3.org/TR/SVG11/feature#Extensibility" style="overflow: visible; text-align: left;"><div xmlns="http://www.w3.org/1999/xhtml" style="display: flex; align-items: unsafe center; justify-content: unsafe center; width: 1px; height: 1px; padding-top: 308px; margin-left: 331px;"><div data-drawio-colors="color: #CCCCCC; " style="box-sizing: border-box; font-size: 0px; text-align: center;"><div style="display: inline-block; font-size: 16px; font-family: Helvetica; color: rgb(204, 204, 204); line-height: 1.2; pointer-events: all; white-space: nowrap;">mentor</div></div></div></foreignObject><text x="331" y="312" fill="#CCCCCC" font-family="Helvetica" font-size="16px" text-anchor="middle">mentor</text></switch></g><path d="M 361 242.5 C 361 234.22 381.15 227.5 406 227.5 C 417.93 227.5 429.38 229.08 437.82 231.89 C 446.26 234.71 451 238.52 451 242.5 L 451 272.5 C 451 280.78 430.85 287.5 406 287.5 C 381.15 287.5 361 280.78 361 272.5 Z" fill="rgb(255, 255, 255)" stroke="rgb(0, 0, 0)" stroke-miterlimit="10" pointer-events="all"/><path d="M 451 242.5 C 451 250.78 430.85 257.5 406 257.5 C 381.15 257.5 361 250.78 361 242.5" fill="none" stroke="rgb(0, 0, 0)" stroke-miterlimit="10" pointer-events="all"/><g transform="translate(-0.5 -0.5)"><switch><foreignObject pointer-events="none" width="100%" height="100%" requiredFeatures="http://www.w3.org/TR/SVG11/feature#Extensibility" style="overflow: visible; text-align: left;"><div xmlns="http://www.w3.org/1999/xhtml" style="display: flex; align-items: unsafe center; justify-content: unsafe center; width: 88px; height: 1px; padding-top: 269px; margin-left: 362px;"><div data-drawio-colors="color: rgb(0, 0, 0); " style="box-sizing: border-box; font-size: 0px; text-align: center;"><div style="display: inline-block; font-size: 12px; font-family: Helvetica; color: rgb(0, 0, 0); line-height: 1.2; pointer-events: all; white-space: normal; overflow-wrap: normal;">Profile</div></div></div></foreignObject><text x="406" y="273" fill="rgb(0, 0, 0)" font-family="Helvetica" font-size="12px" text-anchor="middle">Profile</text></switch></g><path d="M 444 600 C 444 591.72 464.15 585 489 585 C 500.93 585 512.38 586.58 520.82 589.39 C 529.26 592.21 534 596.02 534 600 L 534 630 C 534 638.28 513.85 645 489 645 C 464.15 645 444 638.28 444 630 Z" fill="rgb(255, 255, 255)" stroke="rgb(0, 0, 0)" stroke-miterlimit="10" pointer-events="all"/><path d="M 534 600 C 534 608.28 513.85 615 489 615 C 464.15 615 444 608.28 444 600" fill="none" stroke="rgb(0, 0, 0)" stroke-miterlimit="10" pointer-events="all"/><g transform="translate(-0.5 -0.5)"><switch><foreignObject pointer-events="none" width="100%" height="100%" requiredFeatures="http://www.w3.org/TR/SVG11/feature#Extensibility" style="overflow: visible; text-align: left;"><div xmlns="http://www.w3.org/1999/xhtml" style="display: flex; align-items: unsafe center; justify-content: unsafe center; width: 88px; height: 1px; padding-top: 627px; margin-left: 445px;"><div data-drawio-colors="color: rgb(0, 0, 0); " style="box-sizing: border-box; font-size: 0px; text-align: center;"><div style="display: inline-block; font-size: 12px; font-family: Helvetica; color: rgb(0, 0, 0); line-height: 1.2; pointer-events: all; white-space: normal; overflow-wrap: normal;">Encounter</div></div></div></foreignObject><text x="489" y="630" fill="rgb(0, 0, 0)" font-family="Helvetica" font-size="12px" text-anchor="middle">Encounter</text></switch></g><path d="M 489 695 L 489 662" fill="none" stroke="rgb(0, 0, 0)" stroke-width="2" stroke-miterlimit="10" pointer-events="stroke"/><path d="M 484.5 690.5 L 493.5 690.5" fill="none" stroke="rgb(0, 0, 0)" stroke-width="2" stroke-miterlimit="10" pointer-events="all"/><ellipse cx="489" cy="658.5" rx="3" ry="3" fill="none" stroke="rgb(0, 0, 0)" stroke-width="2" pointer-events="all"/><path d="M 484.5 645 L 489 654 L 493.5 645 M 489 654 L 489 645" fill="none" stroke="rgb(0, 0, 0)" stroke-width="2" stroke-miterlimit="10" pointer-events="all"/><path d="M 444 710 C 444 701.72 464.15 695 489 695 C 500.93 695 512.38 696.58 520.82 699.39 C 529.26 702.21 534 706.02 534 710 L 534 740 C 534 748.28 513.85 755 489 755 C 464.15 755 444 748.28 444 740 Z" fill="rgb(255, 255, 255)" stroke="rgb(0, 0, 0)" stroke-miterlimit="10" pointer-events="all"/><path d="M 534 710 C 534 718.28 513.85 725 489 725 C 464.15 725 444 718.28 444 710" fill="none" stroke="rgb(0, 0, 0)" stroke-miterlimit="10" pointer-events="all"/><g transform="translate(-0.5 -0.5)"><switch><foreignObject pointer-events="none" width="100%" height="100%" requiredFeatures="http://www.w3.org/TR/SVG11/feature#Extensibility" style="overflow: visible; text-align: left;"><div xmlns="http://www.w3.org/1999/xhtml" style="display: flex; align-items: unsafe center; justify-content: unsafe center; width: 88px; height: 1px; padding-top: 735px; margin-left: 445px;"><div data-drawio-colors="color: rgb(0, 0, 0); " style="box-sizing: border-box; font-size: 0px; text-align: center;"><div style="display: inline-block; font-size: 12px; font-family: Helvetica; color: rgb(0, 0, 0); line-height: 1.2; pointer-events: all; white-space: normal; overflow-wrap: normal;">Plan</div></div></div></foreignObject><text x="489" y="739" fill="rgb(0, 0, 0)" font-family="Helvetica" font-size="12px" text-anchor="middle">Plan</text></switch></g><path d="M 770 242.5 C 770 234.22 790.15 227.5 815 227.5 C 826.93 227.5 838.38 229.08 846.82 231.89 C 855.26 234.71 860 238.52 860 242.5 L 860 272.5 C 860 280.78 839.85 287.5 815 287.5 C 790.15 287.5 770 280.78 770 272.5 Z" fill="rgb(255, 255, 255)" stroke="rgb(0, 0, 0)" stroke-miterlimit="10" pointer-events="all"/><path d="M 860 242.5 C 860 250.78 839.85 257.5 815 257.5 C 790.15 257.5 770 250.78 770 242.5" fill="none" stroke="rgb(0, 0, 0)" stroke-miterlimit="10" pointer-events="all"/><g transform="translate(-0.5 -0.5)"><switch><foreignObject pointer-events="none" width="100%" height="100%" requiredFeatures="http://www.w3.org/TR/SVG11/feature#Extensibility" style="overflow: visible; text-align: left;"><div xmlns="http://www.w3.org/1999/xhtml" style="display: flex; align-items: unsafe center; justify-content: unsafe center; width: 88px; height: 1px; padding-top: 269px; margin-left: 771px;"><div data-drawio-colors="color: rgb(0, 0, 0); " style="box-sizing: border-box; font-size: 0px; text-align: center;"><div style="display: inline-block; font-size: 12px; font-family: Helvetica; color: rgb(0, 0, 0); line-height: 1.2; pointer-events: all; white-space: normal; overflow-wrap: normal;">Subscription</div></div></div></foreignObject><text x="815" y="273" fill="rgb(0, 0, 0)" font-family="Helvetica" font-size="12px" text-anchor="middle">Subscription</text></switch></g><path d="M 505 129 L 505 168.25 Q 505 178.25 515 178.25 L 695 178.25 Q 705 178.25 705 188.25 L 705 210.5" fill="none" stroke="rgb(0, 0, 0)" stroke-width="2" stroke-miterlimit="10" pointer-events="stroke"/><path d="M 509.5 133.5 L 500.5 133.5" fill="none" stroke="rgb(0, 0, 0)" stroke-width="2" stroke-miterlimit="10" pointer-events="all"/><ellipse cx="705" cy="214" rx="3" ry="3" fill="none" stroke="rgb(0, 0, 0)" stroke-width="2" pointer-events="all"/><path d="M 709.5 227.5 L 705 218.5 L 700.5 227.5 M 705 218.5 L 705 227.5" fill="none" stroke="rgb(0, 0, 0)" stroke-width="2" stroke-miterlimit="10" pointer-events="all"/><path d="M 505 129 L 505 168.25 Q 505 178.25 515 178.25 L 801.25 178.25 Q 811.25 178.25 811.24 188.25 L 811.23 210.38" fill="none" stroke="rgb(0, 0, 0)" stroke-width="2" stroke-miterlimit="10" pointer-events="stroke"/><path d="M 509.5 133.5 L 500.5 133.5" fill="none" stroke="rgb(0, 0, 0)" stroke-width="2" stroke-miterlimit="10" pointer-events="all"/><ellipse cx="811.23" cy="213.88" rx="3" ry="3" fill="none" stroke="rgb(0, 0, 0)" stroke-width="2" pointer-events="all"/><path d="M 815.72 227.38 L 811.23 218.38 L 806.72 227.38 M 811.23 218.38 L 811.22 227.38" fill="none" stroke="rgb(0, 0, 0)" stroke-width="2" stroke-miterlimit="10" pointer-events="all"/><path d="M 505 129 L 505 168.25 Q 505 178.25 515 178.25 L 915 178.25 Q 925 178.25 925 188.25 L 925 210.5" fill="none" stroke="rgb(0, 0, 0)" stroke-width="2" stroke-miterlimit="10" pointer-events="stroke"/><path d="M 509.5 133.5 L 500.5 133.5" fill="none" stroke="rgb(0, 0, 0)" stroke-width="2" stroke-miterlimit="10" pointer-events="all"/><ellipse cx="925" cy="214" rx="3" ry="3" fill="none" stroke="rgb(0, 0, 0)" stroke-width="2" pointer-events="all"/><path d="M 929.5 227.5 L 925 218.5 L 920.5 227.5 M 925 218.5 L 925 227.5" fill="none" stroke="rgb(0, 0, 0)" stroke-width="2" stroke-miterlimit="10" pointer-events="all"/><path d="M 460 99 L 394.75 99 Q 384.75 99 384.75 109 L 384.76 229.18" fill="none" stroke="rgb(0, 0, 0)" stroke-width="2" stroke-miterlimit="10" pointer-events="stroke"/><path d="M 455.5 103.5 L 455.5 94.5" fill="none" stroke="rgb(0, 0, 0)" stroke-width="2" stroke-miterlimit="10" pointer-events="all"/><path d="M 380.26 224.68 L 389.26 224.68" fill="none" stroke="rgb(0, 0, 0)" stroke-width="2" stroke-miterlimit="10" pointer-events="all"/><g transform="translate(-0.5 -0.5)"><switch><foreignObject pointer-events="none" width="100%" height="100%" requiredFeatures="http://www.w3.org/TR/SVG11/feature#Extensibility" style="overflow: visible; text-align: left;"><div xmlns="http://www.w3.org/1999/xhtml" style="display: flex; align-items: unsafe center; justify-content: unsafe center; width: 1px; height: 1px; padding-top: 104px; margin-left: 425px;"><div data-drawio-colors="color: #CCCCCC; " style="box-sizing: border-box; font-size: 0px; text-align: center;"><div style="display: inline-block; font-size: 32px; font-family: Helvetica; color: rgb(204, 204, 204); line-height: 1.2; pointer-events: all; white-space: nowrap;"><span style="font-size: 16px;">primary</span></div></div></div></foreignObject><text x="425" y="113" fill="#CCCCCC" font-family="Helvetica" font-size="32px" text-anchor="middle">primary</text></switch></g><path d="M 460 84 C 460 75.72 480.15 69 505 69 C 516.93 69 528.38 70.58 536.82 73.39 C 545.26 76.21 550 80.02 550 84 L 550 114 C 550 122.28 529.85 129 505 129 C 480.15 129 460 122.28 460 114 Z" fill="rgb(255, 255, 255)" stroke="rgb(0, 0, 0)" stroke-miterlimit="10" pointer-events="all"/><path d="M 550 84 C 550 92.28 529.85 99 505 99 C 480.15 99 460 92.28 460 84" fill="none" stroke="rgb(0, 0, 0)" stroke-miterlimit="10" pointer-events="all"/><g transform="translate(-0.5 -0.5)"><switch><foreignObject pointer-events="none" width="100%" height="100%" requiredFeatures="http://www.w3.org/TR/SVG11/feature#Extensibility" style="overflow: visible; text-align: left;"><div xmlns="http://www.w3.org/1999/xhtml" style="display: flex; align-items: unsafe center; justify-content: unsafe center; width: 88px; height: 1px; padding-top: 111px; margin-left: 461px;"><div data-drawio-colors="color: rgb(0, 0, 0); " style="box-sizing: border-box; font-size: 0px; text-align: center;"><div style="display: inline-block; font-size: 12px; font-family: Helvetica; color: rgb(0, 0, 0); line-height: 1.2; pointer-events: all; white-space: normal; overflow-wrap: normal;">Customer</div></div></div></foreignObject><text x="505" y="114" fill="rgb(0, 0, 0)" font-family="Helvetica" font-size="12px" text-anchor="middle">Customer</text></switch></g><path d="M 361 438 C 361 429.72 381.15 423 406 423 C 417.93 423 429.38 424.58 437.82 427.39 C 446.26 430.21 451 434.02 451 438 L 451 468 C 451 476.28 430.85 483 406 483 C 381.15 483 361 476.28 361 468 Z" fill="rgb(255, 255, 255)" stroke="rgb(0, 0, 0)" stroke-miterlimit="10" pointer-events="none"/><path d="M 451 438 C 451 446.28 430.85 453 406 453 C 381.15 453 361 446.28 361 438" fill="none" stroke="rgb(0, 0, 0)" stroke-miterlimit="10" pointer-events="none"/><g transform="translate(-0.5 -0.5)"><switch><foreignObject pointer-events="none" width="100%" height="100%" requiredFeatures="http://www.w3.org/TR/SVG11/feature#Extensibility" style="overflow: visible; text-align: left;"><div xmlns="http://www.w3.org/1999/xhtml" style="display: flex; align-items: unsafe center; justify-content: unsafe center; width: 88px; height: 1px; padding-top: 463px; margin-left: 362px;"><div data-drawio-colors="color: rgb(0, 0, 0); " style="box-sizing: border-box; font-size: 0px; text-align: center;"><div style="display: inline-block; font-size: 12px; font-family: Helvetica; color: rgb(0, 0, 0); line-height: 1.2; pointer-events: none; white-space: normal; overflow-wrap: normal;">Rating</div></div></div></foreignObject><text x="406" y="467" fill="rgb(0, 0, 0)" font-family="Helvetica" font-size="12px" text-anchor="middle">Rating</text></switch></g><path d="M 361 408 C 361 399.72 381.15 393 406 393 C 417.93 393 429.38 394.58 437.82 397.39 C 446.26 400.21 451 404.02 451 408 L 451 438 C 451 446.28 430.85 453 406 453 C 381.15 453 361 446.28 361 438 Z" fill="rgb(255, 255, 255)" stroke="rgb(0, 0, 0)" stroke-miterlimit="10" pointer-events="none"/><path d="M 451 408 C 451 416.28 430.85 423 406 423 C 381.15 423 361 416.28 361 408" fill="none" stroke="rgb(0, 0, 0)" stroke-miterlimit="10" pointer-events="none"/><g transform="translate(-0.5 -0.5)"><switch><foreignObject pointer-events="none" width="100%" height="100%" requiredFeatures="http://www.w3.org/TR/SVG11/feature#Extensibility" style="overflow: visible; text-align: left;"><div xmlns="http://www.w3.org/1999/xhtml" style="display: flex; align-items: unsafe center; justify-content: unsafe center; width: 88px; height: 1px; padding-top: 433px; margin-left: 362px;"><div data-drawio-colors="color: rgb(0, 0, 0); " style="box-sizing: border-box; font-size: 0px; text-align: center;"><div style="display: inline-block; font-size: 12px; font-family: Helvetica; color: rgb(0, 0, 0); line-height: 1.2; pointer-events: none; white-space: normal; overflow-wrap: normal;">Note</div></div></div></foreignObject><text x="406" y="437" fill="rgb(0, 0, 0)" font-family="Helvetica" font-size="12px" text-anchor="middle">Note</text></switch></g><path d="M 760 585 C 760 576.72 780.15 570 805 570 C 816.93 570 828.38 571.58 836.82 574.39 C 845.26 577.21 850 581.02 850 585 L 850 615 C 850 623.28 829.85 630 805 630 C 780.15 630 760 623.28 760 615 Z" fill="#a20025" stroke="#6f0000" stroke-miterlimit="10" pointer-events="none"/><path d="M 850 585 C 850 593.28 829.85 600 805 600 C 780.15 600 760 593.28 760 585" fill="none" stroke="#6f0000" stroke-miterlimit="10" pointer-events="none"/><g transform="translate(-0.5 -0.5)"><switch><foreignObject pointer-events="none" width="100%" height="100%" requiredFeatures="http://www.w3.org/TR/SVG11/feature#Extensibility" style="overflow: visible; text-align: left;"><div xmlns="http://www.w3.org/1999/xhtml" style="display: flex; align-items: unsafe center; justify-content: unsafe center; width: 88px; height: 1px; padding-top: 612px; margin-left: 761px;"><div data-drawio-colors="color: #ffffff; " style="box-sizing: border-box; font-size: 0px; text-align: center;"><div style="display: inline-block; font-size: 12px; font-family: Helvetica; color: rgb(255, 255, 255); line-height: 1.2; pointer-events: none; white-space: normal; overflow-wrap: normal;">Versions</div></div></div></foreignObject><text x="805" y="615" fill="#ffffff" font-family="Helvetica" font-size="12px" text-anchor="middle">Versions</text></switch></g><path d="M 760 545 C 760 536.72 780.15 530 805 530 C 816.93 530 828.38 531.58 836.82 534.39 C 845.26 537.21 850 541.02 850 545 L 850 575 C 850 583.28 829.85 590 805 590 C 780.15 590 760 583.28 760 575 Z" fill="#a20025" stroke="#6f0000" stroke-miterlimit="10" pointer-events="none"/><path d="M 850 545 C 850 553.28 829.85 560 805 560 C 780.15 560 760 553.28 760 545" fill="none" stroke="#6f0000" stroke-miterlimit="10" pointer-events="none"/><g transform="translate(-0.5 -0.5)"><switch><foreignObject pointer-events="none" width="100%" height="100%" requiredFeatures="http://www.w3.org/TR/SVG11/feature#Extensibility" style="overflow: visible; text-align: left;"><div xmlns="http://www.w3.org/1999/xhtml" style="display: flex; align-items: unsafe center; justify-content: unsafe center; width: 88px; height: 1px; padding-top: 570px; margin-left: 761px;"><div data-drawio-colors="color: #ffffff; " style="box-sizing: border-box; font-size: 0px; text-align: center;"><div style="display: inline-block; font-size: 12px; font-family: Helvetica; color: rgb(255, 255, 255); line-height: 1.2; pointer-events: none; white-space: normal; overflow-wrap: normal;">Enumerators</div></div></div></foreignObject><text x="805" y="574" fill="#ffffff" font-family="Helvetica" font-size="12px" text-anchor="middle">Enumerators</text></switch></g><path d="M 434 94 L 444 99 L 434 104 Z" fill="#ffff88" stroke="#36393d" stroke-miterlimit="10" transform="rotate(-180,439,99)" pointer-events="none"/><path d="M 500 147 L 510 152 L 500 157 Z" fill="#ffff88" stroke="#36393d" stroke-miterlimit="10" transform="rotate(90,505,152)" pointer-events="none"/><path d="M 401 358.5 L 411 363.5 L 401 368.5 Z" fill="#ffff88" stroke="#36393d" stroke-miterlimit="10" transform="rotate(-90,406,363.5)" pointer-events="none"/><path d="M 401 508.5 L 411 513.5 L 401 518.5 Z" fill="#ffff88" stroke="#36393d" stroke-miterlimit="10" transform="rotate(90,406,513.5)" pointer-events="none"/><path d="M 484 670 L 494 675 L 484 680 Z" fill="#ffff88" stroke="#36393d" stroke-miterlimit="10" transform="rotate(90,489,675)" pointer-events="none"/><path d="M 281 467 L 291 472 L 281 477 Z" fill="#ffff88" stroke="#36393d" stroke-miterlimit="10" transform="rotate(90,286,472)" pointer-events="none"/><path d="M 101 468 L 111 473 L 101 478 Z" fill="#ffff88" stroke="#36393d" stroke-miterlimit="10" transform="rotate(90,106,473)" pointer-events="none"/><path d="M 181 610 L 191 615 L 181 620 Z" fill="#ffff88" stroke="#36393d" stroke-miterlimit="10" pointer-events="none"/><path d="M 191 365.5 L 201 370.5 L 191 375.5 Z" fill="#ffff88" stroke="#36393d" stroke-miterlimit="10" transform="rotate(-90,196,370.5)" pointer-events="none"/><path d="M 286 287.5 L 296 292.5 L 286 297.5 Z" fill="#ffff88" stroke="#36393d" stroke-miterlimit="10" transform="rotate(-90,291,292.5)" pointer-events="none"/><path d="M 322 208.5 L 332 213.5 L 322 218.5 Z" fill="#ffff88" stroke="#36393d" stroke-miterlimit="10" transform="rotate(-145,327,213.5)" pointer-events="none"/><path d="M 437.95 283.15 L 437.99 307 Q 438 317 448 317 L 479 317 Q 489 317 489 327 L 489 585" fill="none" stroke="rgb(0, 0, 0)" stroke-width="2" stroke-miterlimit="10" pointer-events="none"/><path d="M 442.46 287.64 L 433.46 287.66 M 442.46 292.14 L 433.46 292.16" fill="none" stroke="rgb(0, 0, 0)" stroke-width="2" stroke-miterlimit="10" pointer-events="none"/><path d="M 484.5 580.5 L 493.5 580.5" fill="none" stroke="rgb(0, 0, 0)" stroke-width="2" stroke-miterlimit="10" pointer-events="none"/><path d="M 484 560 L 494 565 L 484 570 Z" fill="#ffff88" stroke="#36393d" stroke-miterlimit="10" transform="rotate(-90,489,565)" pointer-events="none"/><path d="M 401 192 L 411 197 L 401 202 Z" fill="#ffff88" stroke="#36393d" stroke-miterlimit="10" transform="rotate(-90,406,197)" pointer-events="none"/><path d="M 550 635 C 550 626.72 570.15 620 595 620 C 606.93 620 618.38 621.58 626.82 624.39 C 635.26 627.21 640 631.02 640 635 L 640 665 C 640 673.28 619.85 680 595 680 C 570.15 680 550 673.28 550 665 Z" fill="rgb(255, 255, 255)" stroke="rgb(0, 0, 0)" stroke-miterlimit="10" pointer-events="none"/><path d="M 640 635 C 640 643.28 619.85 650 595 650 C 570.15 650 550 643.28 550 635" fill="none" stroke="rgb(0, 0, 0)" stroke-miterlimit="10" pointer-events="none"/><g transform="translate(-0.5 -0.5)"><switch><foreignObject pointer-events="none" width="100%" height="100%" requiredFeatures="http://www.w3.org/TR/SVG11/feature#Extensibility" style="overflow: visible; text-align: left;"><div xmlns="http://www.w3.org/1999/xhtml" style="display: flex; align-items: unsafe center; justify-content: unsafe center; width: 88px; height: 1px; padding-top: 662px; margin-left: 551px;"><div data-drawio-colors="color: rgb(0, 0, 0); " style="box-sizing: border-box; font-size: 0px; text-align: center;"><div style="display: inline-block; font-size: 12px; font-family: Helvetica; color: rgb(0, 0, 0); line-height: 1.2; pointer-events: none; white-space: normal; overflow-wrap: normal;">Mentee</div></div></div></foreignObject><text x="595" y="665" fill="rgb(0, 0, 0)" font-family="Helvetica" font-size="12px" text-anchor="middle">Mentee</text></switch></g><path d="M 451 272.5 L 585 272.5 Q 595 272.5 595 282.5 L 595 603" fill="none" stroke="rgb(0, 0, 0)" stroke-width="2" stroke-miterlimit="10" pointer-events="none"/><path d="M 455.5 268 L 455.5 277" fill="none" stroke="rgb(0, 0, 0)" stroke-width="2" stroke-miterlimit="10" pointer-events="none"/><ellipse cx="595" cy="606.5" rx="3" ry="3" fill="none" stroke="rgb(0, 0, 0)" stroke-width="2" pointer-events="none"/><path d="M 590.5 615.5 L 599.5 615.5 M 595 610 L 595 620" fill="none" stroke="rgb(0, 0, 0)" stroke-width="2" stroke-miterlimit="10" pointer-events="none"/><path d="M 590 576 L 600 581 L 590 586 Z" fill="#ffff88" stroke="#36393d" stroke-miterlimit="10" transform="rotate(-90,595,581)" pointer-events="none"/></g><switch><g requiredFeatures="http://www.w3.org/TR/SVG11/feature#Extensibility"/><a transform="translate(0,-5)" xlink:href="https://www.diagrams.net/doc/faq/svg-export-text-problems" target="_blank"><text text-anchor="middle" font-size="10px" x="50%" y="100%">Text is not SVG - cannot display</text></a></switch></svg>