<svg xmlns="http://www.w3.org/2000/svg" xmlns:xlink="http://www.w3.org/1999/xlink" version="1.1" width="992px" height="842px" viewBox="-0.5 -0.5 992 842" content="&lt;mxfile&gt;&lt;diagram id=&quot;nsF3EkEgO6K0eGQtcs9W&quot; name=&quot;Page-1&quot;&gt;7Vxbd6I6FP41PrYrFxLgsbX2XNbMma72rHNmHqNEZQ0SD+K0zq8/iQRBgtZKQGunL4WdC+H7dnb23gn2cH/28lvC5tPPIuBRD4HgpYfveggh3/HkPyVZZRKMHJxJJkkYZDJYCJ7Cn1wLgZYuw4AvtiqmQkRpON8WjkQc81G6JWNJIp63q41FtP3UOZtwQ/A0YpEp/TcM0mkm9Qgo5L/zcDLNnwyBLpmxvLIWLKYsEM8lER70cD8RIs2uZi99Hin0clyydvc7SjcDS3icHtIAo6zFDxYt9cvpgaWr/G0TsYwDrhrAHr59noYpf5qzkSp9lgRL2TSdRbp4HEZRX0QiWbfFAHhMvjy+XaSJ+M63Soi7LhmLOC3Jx+s/KdcD40nKX3a+HdxgJrWNixlPk5WsohtceTnOWtOuEKRa8lwQ5/taNi2R5jlayLSyTDbdF3jKCw1pPbzEN+D9LMcu3xWBP8UyifmqIdwSPD0/IDXhh0MGOaqHnw5u7vfAr4APpcrfROEklmVDkaZiprqSgwnjySc+VkghvxDd6ip3SA2N6YbRuqIVOl2vQiek0KSTgho6NzOuEZ1eLZ2cvz86UzEviHvUOMH1hGyHKQ+ga3IYV9DdVG3Elmuw1RciCcKYvcsZmFFmgx1CDLOIzXmE67jB0MY8IiYzy4W0HfxD04KcKi0A1dDi1k0ZaoEW0xe4Y4vpULAkMMiQjstcXY5WUShZSfDrlAwz/j4NNwI2+j5Zs/plmcpuuJYvNG+ksFB/K5DvsC2gq24B9Gv0v84rsAEzNmAe/JAjX1wWxrQKsVujy21BnI+3BCYPpAuvb0WSTsVExCwaFNIyjPwlTL/Ka3BN9N23UsmdekeQ36xKNw88CeVgeZLLYjnwr3lTdfOt6FXdFl2t71blu2pnmanKA47MeLEkvVEBjRQMHn/yRPwtPrN4lZfdhwoi3WVQ1BRKD5SoVCFDTMG0n3KJqjTQI13LyUTyYROua7n1ipHwiKXhj+3em5AMPUsklyguCD+C5BKv37ZotUlyRt1edrf0wAbJ1CTZ64pk3w7J8BfJbye5q5lMjRVxlw/4vpdE6lfXRII6WxPNaOiRa/4vCmXiVlEmrhl4toVyHlmdj72y4HlEbMij2w2heVQU52aqas2qwdcZWDfvdNbNTBo9qDTwRU06l5xy0plZ1v7FxKwnCVGhuVjsNWvaEpTt2GvhxkE2wTQtx83+PGlVnv5wB+D2XVhggPlHIEcbpqfzbyYJC0JeJLg0geUsWcDHbBmlrTlDvpHsorgzBUeWlmmLsaPju+Wl+gpcA+KdNrr4Yi1NAPNt2tIEpB3Nv1dsV/fJoIsNIetYJg1Z1k0fRCgfXJgPBzgVh8Mjxq5RNjbdtKIwm7EcpkO4DR0Cb9ahs8wB1tEOm/J+cDbdMVbXmd5ib0KY5ZCnGS31wRzcYzeuINllOQpVhM5hBu3KucZkh0JWdsn66z+7mvSKIwGuMcakYgz08t7YynjVsMYz96Z3WBlJKVuVqs1VhcW+hzm0+jAnf9j9rkYEGSM8qpHnbjeSF9kLVLrI30aMxwve1KrmdJdD40RIJ/TCUlKOER37uO40RGvhHDJwHsQjCYSaxxeFNDY0u8s8BLYVVTT0EnZ5mvtWjHfmaeKahQJ15HJAcwf/IWLxyWaSlYmDq/v1Du3QQJlO3NNyuBgl4TwNxemQbcVGQViFusvUXr5j/ysabt1GEdNGdWWiEGnIcikvVWSh8rwUQGdIki3FtEd2ZtXs5z6QcXwTVE9lWsx8mJvzvwzIW3WzlB3A6NXsgj0N9DsyN9j0iHqI5psH8Za20P+W6uuWNSZX2WJ7IytAOn9Zv3teLq8m6v9cMsXUcLL+5FCyLrNSS7pYdrePSOM3yBbh45Rtf5roGlFna05cA3TcXkLZAfLt53vqrOar+R66Scu8zZLuzsiYqRK7eY59590vybXF1VO/CPiwO9f2gF1rBcv8Ta+vPyJkw7wL8GZYzPyPS92DYPEtwGLGVo9y0sSTk6neQZq263hO/s1odxGTOXn/EunpMpSN0OsiCWbi9Q9PFjKMP90XDpWvfxiSIQzZrMylEnoPwN6vUrv5VoL43ak3Nh38QbyUS5P6Su4SKGuFIdrlB0MHrGtpErJ4svZvm30Zp0DzvDqgMcU+lkO6TUTK1mk5tc/oKei1JyWrkdseubPlTXiVDTEEKDVQhzWo2/hI0UFni7rfIubGF/MAmseyWsPcXDvOBfOrFkF3YNU/9ACs2R9sDfYDcjyXp+om6pR0ivr5mvUWUUfVc5/QqXF2WsPcPIz/ATAn2NB0v0Ojbh7P/wCYu6Z18VFnmBPzZM25YN4e5NRQ880PXXQB+fn6i236LtQ4ceP6ToerKKnberh82Ak2zj+7dUfKWoPdzCqeDezZudaWnEbfq+Dud+o0Ymu/bOGR5qd/u92DnbE4+HLc1lgGmpXjyKheQWxtRe3Y88ceqs53/aOJO0/5Is8wEdtNts/4HrGv5XxM24uMU+EUdOfa5RnFDwa6Ga371GsLdHlb/AZnNjGKnzLFg/8B&lt;/diagram&gt;&lt;/mxfile&gt;"><defs/><g><rect x="0" y="0" width="990" height="840" rx="126" ry="126" fill="#008a00" stroke="#005700" pointer-events="all"/><rect x="40" y="550" width="600" height="220" rx="33" ry="33" fill="#1ba1e2" stroke="#006eaf" pointer-events="all"/><g transform="translate(-0.5 -0.5)"><switch><foreignObject pointer-events="none" width="100%" height="100%" requiredFeatures="http://www.w3.org/TR/SVG11/feature#Extensibility" style="overflow: visible; text-align: left;"><div xmlns="http://www.w3.org/1999/xhtml" style="display: flex; align-items: unsafe flex-end; justify-content: unsafe flex-start; width: 569px; height: 1px; padding-top: 746px; margin-left: 71px;"><div data-drawio-colors="color: #ffffff; " style="box-sizing: border-box; font-size: 0px; text-align: left;"><div style="display: inline-block; font-size: 16px; font-family: Helvetica; color: rgb(255, 255, 255); line-height: 1.2; pointer-events: all; white-space: normal; overflow-wrap: normal;">Mentor Journey</div></div></div></foreignObject><text x="71" y="746" fill="#ffffff" font-family="Helvetica" font-size="16px">Mentor Journey</text></switch></g><rect x="40" y="357.5" width="600" height="172.5" rx="25.88" ry="25.88" fill="#1ba1e2" stroke="#006eaf" pointer-events="all"/><g transform="translate(-0.5 -0.5)"><switch><foreignObject pointer-events="none" width="100%" height="100%" requiredFeatures="http://www.w3.org/TR/SVG11/feature#Extensibility" style="overflow: visible; text-align: left;"><div xmlns="http://www.w3.org/1999/xhtml" style="display: flex; align-items: unsafe flex-start; justify-content: unsafe center; width: 498px; height: 1px; padding-top: 365px; margin-left: 41px;"><div data-drawio-colors="color: #ffffff; " style="box-sizing: border-box; font-size: 0px; text-align: center;"><div style="display: inline-block; font-size: 16px; font-family: Helvetica; color: rgb(255, 255, 255); line-height: 1.2; pointer-events: all; white-space: normal; overflow-wrap: normal;">Mentee Journey</div></div></div></foreignObject><text x="290" y="381" fill="#ffffff" font-family="Helvetica" font-size="16px" text-anchor="middle">Mentee Journey</text></switch></g><rect x="270" y="30" width="300" height="310" rx="45" ry="45" fill="#1ba1e2" stroke="#006eaf" pointer-events="all"/><g transform="translate(-0.5 -0.5)"><switch><foreignObject pointer-events="none" width="100%" height="100%" requiredFeatures="http://www.w3.org/TR/SVG11/feature#Extensibility" style="overflow: visible; text-align: left;"><div xmlns="http://www.w3.org/1999/xhtml" style="display: flex; align-items: unsafe flex-start; justify-content: unsafe center; width: 298px; height: 1px; padding-top: 37px; margin-left: 271px;"><div data-drawio-colors="color: #ffffff; " style="box-sizing: border-box; font-size: 0px; text-align: center;"><div style="display: inline-block; font-size: 16px; font-family: Helvetica; color: rgb(255, 255, 255); line-height: 1.2; pointer-events: all; white-space: normal; overflow-wrap: normal;">Coordinator Journey</div></div></div></foreignObject><text x="420" y="53" fill="#ffffff" font-family="Helvetica" font-size="16px" text-anchor="middle">Coordinator Journey</text></switch></g><rect x="580" y="140" width="370" height="160" rx="24" ry="24" fill="#1ba1e2" stroke="#006eaf" pointer-events="all"/><g transform="translate(-0.5 -0.5)"><switch><foreignObject pointer-events="none" width="100%" height="100%" requiredFeatures="http://www.w3.org/TR/SVG11/feature#Extensibility" style="overflow: visible; text-align: left;"><div xmlns="http://www.w3.org/1999/xhtml" style="display: flex; align-items: unsafe flex-start; justify-content: unsafe center; width: 368px; height: 1px; padding-top: 147px; margin-left: 581px;"><div data-drawio-colors="color: #ffffff; " style="box-sizing: border-box; font-size: 0px; text-align: center;"><div style="display: inline-block; font-size: 16px; font-family: Helvetica; color: rgb(255, 255, 255); line-height: 1.2; pointer-events: all; white-space: normal; overflow-wrap: normal;">Customer Journey</div></div></div></foreignObject><text x="765" y="163" fill="#ffffff" font-family="Helvetica" font-size="16px" text-anchor="middle">Customer Journey</text></switch></g><path d="M 600 245 C 600 236.72 620.15 230 645 230 C 656.93 230 668.38 231.58 676.82 234.39 C 685.26 237.21 690 241.02 690 245 L 690 275 C 690 283.28 669.85 290 645 290 C 620.15 290 600 283.28 600 275 Z" fill="rgb(255, 255, 255)" stroke="rgb(0, 0, 0)" stroke-miterlimit="10" pointer-events="all"/><path d="M 690 245 C 690 253.28 669.85 260 645 260 C 620.15 260 600 253.28 600 245" fill="none" stroke="rgb(0, 0, 0)" stroke-miterlimit="10" pointer-events="all"/><g transform="translate(-0.5 -0.5)"><switch><foreignObject pointer-events="none" width="100%" height="100%" requiredFeatures="http://www.w3.org/TR/SVG11/feature#Extensibility" style="overflow: visible; text-align: left;"><div xmlns="http://www.w3.org/1999/xhtml" style="display: flex; align-items: unsafe center; justify-content: unsafe center; width: 88px; height: 1px; padding-top: 272px; margin-left: 601px;"><div data-drawio-colors="color: rgb(0, 0, 0); " style="box-sizing: border-box; font-size: 0px; text-align: center;"><div style="display: inline-block; font-size: 12px; font-family: Helvetica; color: rgb(0, 0, 0); line-height: 1.2; pointer-events: all; white-space: normal; overflow-wrap: normal;">Dashboard</div></div></div></foreignObject><text x="645" y="275" fill="rgb(0, 0, 0)" font-family="Helvetica" font-size="12px" text-anchor="middle">Dashboard</text></switch></g><path d="M 760 455 C 760 446.72 780.15 440 805 440 C 816.93 440 828.38 441.58 836.82 444.39 C 845.26 447.21 850 451.02 850 455 L 850 485 C 850 493.28 829.85 500 805 500 C 780.15 500 760 493.28 760 485 Z" fill="rgb(255, 255, 255)" stroke="rgb(0, 0, 0)" stroke-miterlimit="10" pointer-events="all"/><path d="M 850 455 C 850 463.28 829.85 470 805 470 C 780.15 470 760 463.28 760 455" fill="none" stroke="rgb(0, 0, 0)" stroke-miterlimit="10" pointer-events="all"/><g transform="translate(-0.5 -0.5)"><switch><foreignObject pointer-events="none" width="100%" height="100%" requiredFeatures="http://www.w3.org/TR/SVG11/feature#Extensibility" style="overflow: visible; text-align: left;"><div xmlns="http://www.w3.org/1999/xhtml" style="display: flex; align-items: unsafe center; justify-content: unsafe center; width: 88px; height: 1px; padding-top: 482px; margin-left: 761px;"><div data-drawio-colors="color: rgb(0, 0, 0); " style="box-sizing: border-box; font-size: 0px; text-align: center;"><div style="display: inline-block; font-size: 12px; font-family: Helvetica; color: rgb(0, 0, 0); line-height: 1.2; pointer-events: all; white-space: normal; overflow-wrap: normal;">Events</div></div></div></foreignObject><text x="805" y="485" fill="rgb(0, 0, 0)" font-family="Helvetica" font-size="12px" text-anchor="middle">Events</text></switch></g><path d="M 406 500 L 406 605 Q 406 615 396 615 L 331 615" fill="none" stroke="rgb(0, 0, 0)" stroke-width="2" stroke-miterlimit="10" pointer-events="stroke"/><ellipse cx="406" cy="496.5" rx="3" ry="3" fill="none" stroke="rgb(0, 0, 0)" stroke-width="2" pointer-events="all"/><path d="M 401.5 483 L 406 492 L 410.5 483 M 406 492 L 406 483" fill="none" stroke="rgb(0, 0, 0)" stroke-width="2" stroke-miterlimit="10" pointer-events="all"/><path d="M 335.5 610.5 L 335.5 619.5" fill="none" stroke="rgb(0, 0, 0)" stroke-width="2" stroke-miterlimit="10" pointer-events="all"/><path d="M 151 438 L 116 438 Q 106 438 106 448 L 106 568" fill="none" stroke="rgb(0, 0, 0)" stroke-width="2" stroke-miterlimit="10" pointer-events="stroke"/><path d="M 146.5 442.5 L 146.5 433.5" fill="none" stroke="rgb(0, 0, 0)" stroke-width="2" stroke-miterlimit="10" pointer-events="all"/><ellipse cx="106" cy="571.5" rx="3" ry="3" fill="none" stroke="rgb(0, 0, 0)" stroke-width="2" pointer-events="all"/><path d="M 110.5 585 L 106 576 L 101.5 585 M 106 576 L 106 585" fill="none" stroke="rgb(0, 0, 0)" stroke-width="2" stroke-miterlimit="10" pointer-events="all"/><path d="M 241 438 L 276 438 Q 286 438 286 448 L 286 568" fill="none" stroke="rgb(0, 0, 0)" stroke-width="2" stroke-miterlimit="10" pointer-events="stroke"/><path d="M 245.5 433.5 L 245.5 442.5" fill="none" stroke="rgb(0, 0, 0)" stroke-width="2" stroke-miterlimit="10" pointer-events="all"/><ellipse cx="286" cy="571.5" rx="3" ry="3" fill="none" stroke="rgb(0, 0, 0)" stroke-width="2" pointer-events="all"/><path d="M 290.5 585 L 286 576 L 281.5 585 M 286 576 L 286 585" fill="none" stroke="rgb(0, 0, 0)" stroke-width="2" stroke-miterlimit="10" pointer-events="all"/><path d="M 151 423 C 151 414.72 171.15 408 196 408 C 207.93 408 219.38 409.58 227.82 412.39 C 236.26 415.21 241 419.02 241 423 L 241 453 C 241 461.28 220.85 468 196 468 C 171.15 468 151 461.28 151 453 Z" fill="rgb(255, 255, 255)" stroke="rgb(0, 0, 0)" stroke-miterlimit="10" pointer-events="all"/><path d="M 241 423 C 241 431.28 220.85 438 196 438 C 171.15 438 151 431.28 151 423" fill="none" stroke="rgb(0, 0, 0)" stroke-miterlimit="10" pointer-events="all"/><g transform="translate(-0.5 -0.5)"><switch><foreignObject pointer-events="none" width="100%" height="100%" requiredFeatures="http://www.w3.org/TR/SVG11/feature#Extensibility" style="overflow: visible; text-align: left;"><div xmlns="http://www.w3.org/1999/xhtml" style="display: flex; align-items: unsafe center; justify-content: unsafe center; width: 88px; height: 1px; padding-top: 450px; margin-left: 152px;"><div data-drawio-colors="color: rgb(0, 0, 0); " style="box-sizing: border-box; font-size: 0px; text-align: center;"><div style="display: inline-block; font-size: 12px; font-family: Helvetica; color: rgb(0, 0, 0); line-height: 1.2; pointer-events: all; white-space: normal; overflow-wrap: normal;">Journey</div></div></div></foreignObject><text x="196" y="453" fill="rgb(0, 0, 0)" font-family="Helvetica" font-size="12px" text-anchor="middle">Journey</text></switch></g><path d="M 241 600 C 241 591.72 261.15 585 286 585 C 297.93 585 309.38 586.58 317.82 589.39 C 326.26 592.21 331 596.02 331 600 L 331 630 C 331 638.28 310.85 645 286 645 C 261.15 645 241 638.28 241 630 Z" fill="rgb(255, 255, 255)" stroke="rgb(0, 0, 0)" stroke-miterlimit="10" pointer-events="all"/><path d="M 331 600 C 331 608.28 310.85 615 286 615 C 261.15 615 241 608.28 241 600" fill="none" stroke="rgb(0, 0, 0)" stroke-miterlimit="10" pointer-events="all"/><g transform="translate(-0.5 -0.5)"><switch><foreignObject pointer-events="none" width="100%" height="100%" requiredFeatures="http://www.w3.org/TR/SVG11/feature#Extensibility" style="overflow: visible; text-align: left;"><div xmlns="http://www.w3.org/1999/xhtml" style="display: flex; align-items: unsafe center; justify-content: unsafe center; width: 88px; height: 1px; padding-top: 627px; margin-left: 242px;"><div data-drawio-colors="color: rgb(0, 0, 0); " style="box-sizing: border-box; font-size: 0px; text-align: center;"><div style="display: inline-block; font-size: 12px; font-family: Helvetica; color: rgb(0, 0, 0); line-height: 1.2; pointer-events: all; white-space: normal; overflow-wrap: normal;">Resource</div></div></div></foreignObject><text x="286" y="630" fill="rgb(0, 0, 0)" font-family="Helvetica" font-size="12px" text-anchor="middle">Resource</text></switch></g><path d="M 151 615 L 224 615" fill="none" stroke="rgb(0, 0, 0)" stroke-width="2" stroke-miterlimit="10" pointer-events="stroke"/><path d="M 155.5 610.5 L 155.5 619.5" fill="none" stroke="rgb(0, 0, 0)" stroke-width="2" stroke-miterlimit="10" pointer-events="all"/><ellipse cx="227.5" cy="615" rx="3" ry="3" fill="none" stroke="rgb(0, 0, 0)" stroke-width="2" pointer-events="all"/><path d="M 241 610.5 L 232 615 L 241 619.5 M 232 615 L 241 615" fill="none" stroke="rgb(0, 0, 0)" stroke-width="2" stroke-miterlimit="10" pointer-events="all"/><path d="M 61 600 C 61 591.72 81.15 585 106 585 C 117.93 585 129.38 586.58 137.82 589.39 C 146.26 592.21 151 596.02 151 600 L 151 630 C 151 638.28 130.85 645 106 645 C 81.15 645 61 638.28 61 630 Z" fill="rgb(255, 255, 255)" stroke="rgb(0, 0, 0)" stroke-miterlimit="10" pointer-events="all"/><path d="M 151 600 C 151 608.28 130.85 615 106 615 C 81.15 615 61 608.28 61 600" fill="none" stroke="rgb(0, 0, 0)" stroke-miterlimit="10" pointer-events="all"/><g transform="translate(-0.5 -0.5)"><switch><foreignObject pointer-events="none" width="100%" height="100%" requiredFeatures="http://www.w3.org/TR/SVG11/feature#Extensibility" style="overflow: visible; text-align: left;"><div xmlns="http://www.w3.org/1999/xhtml" style="display: flex; align-items: unsafe center; justify-content: unsafe center; width: 88px; height: 1px; padding-top: 627px; margin-left: 62px;"><div data-drawio-colors="color: rgb(0, 0, 0); " style="box-sizing: border-box; font-size: 0px; text-align: center;"><div style="display: inline-block; font-size: 12px; font-family: Helvetica; color: rgb(0, 0, 0); line-height: 1.2; pointer-events: all; white-space: normal; overflow-wrap: normal;">Path</div></div></div></foreignObject><text x="106" y="630" fill="rgb(0, 0, 0)" font-family="Helvetica" font-size="12px" text-anchor="middle">Path</text></switch></g><path d="M 820 245 C 820 236.72 840.15 230 865 230 C 876.93 230 888.38 231.58 896.82 234.39 C 905.26 237.21 910 241.02 910 245 L 910 275 C 910 283.28 889.85 290 865 290 C 840.15 290 820 283.28 820 275 Z" fill="rgb(255, 255, 255)" stroke="rgb(0, 0, 0)" stroke-miterlimit="10" pointer-events="all"/><path d="M 910 245 C 910 253.28 889.85 260 865 260 C 840.15 260 820 253.28 820 245" fill="none" stroke="rgb(0, 0, 0)" stroke-miterlimit="10" pointer-events="all"/><g transform="translate(-0.5 -0.5)"><switch><foreignObject pointer-events="none" width="100%" height="100%" requiredFeatures="http://www.w3.org/TR/SVG11/feature#Extensibility" style="overflow: visible; text-align: left;"><div xmlns="http://www.w3.org/1999/xhtml" style="display: flex; align-items: unsafe center; justify-content: unsafe center; width: 88px; height: 1px; padding-top: 272px; margin-left: 821px;"><div data-drawio-colors="color: rgb(0, 0, 0); " style="box-sizing: border-box; font-size: 0px; text-align: center;"><div style="display: inline-block; font-size: 12px; font-family: Helvetica; color: rgb(0, 0, 0); line-height: 1.2; pointer-events: all; white-space: normal; overflow-wrap: normal;">Card</div></div></div></foreignObject><text x="865" y="275" fill="rgb(0, 0, 0)" font-family="Helvetica" font-size="12px" text-anchor="middle">Card</text></switch></g><path d="M 220 152.42 L 361 232.08" fill="none" stroke="rgb(0, 0, 0)" stroke-width="2" stroke-miterlimit="10" pointer-events="stroke"/><path d="M 226.13 150.72 L 221.7 158.55" fill="none" stroke="rgb(0, 0, 0)" stroke-width="2" stroke-miterlimit="10" pointer-events="all"/><path d="M 354.87 233.78 L 359.3 225.95" fill="none" stroke="rgb(0, 0, 0)" stroke-width="2" stroke-miterlimit="10" pointer-events="all"/><path d="M 130 112 C 130 103.72 150.15 97 175 97 C 186.93 97 198.38 98.58 206.82 101.39 C 215.26 104.21 220 108.02 220 112 L 220 142 C 220 150.28 199.85 157 175 157 C 150.15 157 130 150.28 130 142 Z" fill="rgb(255, 255, 255)" stroke="rgb(0, 0, 0)" stroke-miterlimit="10" pointer-events="all"/><path d="M 220 112 C 220 120.28 199.85 127 175 127 C 150.15 127 130 120.28 130 112" fill="none" stroke="rgb(0, 0, 0)" stroke-miterlimit="10" pointer-events="all"/><g transform="translate(-0.5 -0.5)"><switch><foreignObject pointer-events="none" width="100%" height="100%" requiredFeatures="http://www.w3.org/TR/SVG11/feature#Extensibility" style="overflow: visible; text-align: left;"><div xmlns="http://www.w3.org/1999/xhtml" style="display: flex; align-items: unsafe center; justify-content: unsafe center; width: 88px; height: 1px; padding-top: 139px; margin-left: 131px;"><div data-drawio-colors="color: rgb(0, 0, 0); " style="box-sizing: border-box; font-size: 0px; text-align: center;"><div style="display: inline-block; font-size: 12px; font-family: Helvetica; color: rgb(0, 0, 0); line-height: 1.2; pointer-events: all; white-space: normal; overflow-wrap: normal;">Identity</div></div></div></foreignObject><text x="175" y="142" fill="rgb(0, 0, 0)" font-family="Helvetica" font-size="12px" text-anchor="middle">Identity</text></switch></g><path d="M 361 257.5 L 205.75 257.5 Q 195.75 257.5 195.75 267.5 L 195.73 387.52" fill="none" stroke="rgb(0, 0, 0)" stroke-width="2" stroke-miterlimit="10" pointer-events="stroke"/><path d="M 356.5 262 L 356.5 253" fill="none" stroke="rgb(0, 0, 0)" stroke-width="2" stroke-miterlimit="10" pointer-events="all"/><ellipse cx="195.73" cy="391.02" rx="3" ry="3" fill="none" stroke="rgb(0, 0, 0)" stroke-width="2" pointer-events="all"/><path d="M 191.23 400.02 L 200.23 400.02 M 195.73 394.52 L 195.73 404.52" fill="none" stroke="rgb(0, 0, 0)" stroke-width="2" stroke-miterlimit="10" pointer-events="all"/><path d="M 406 287.5 L 406 376" fill="none" stroke="rgb(0, 0, 0)" stroke-width="2" stroke-miterlimit="10" pointer-events="stroke"/><path d="M 410.5 292 L 401.5 292" fill="none" stroke="rgb(0, 0, 0)" stroke-width="2" stroke-miterlimit="10" pointer-events="all"/><ellipse cx="406" cy="379.5" rx="3" ry="3" fill="none" stroke="rgb(0, 0, 0)" stroke-width="2" pointer-events="all"/><path d="M 410.5 393 L 406 384 L 401.5 393 M 406 384 L 406 393" fill="none" stroke="rgb(0, 0, 0)" stroke-width="2" stroke-miterlimit="10" pointer-events="all"/><path d="M 406 210.5 L 406 188.25 Q 406 178.25 416 178.25 L 495 178.25 Q 505 178.25 505 168.25 L 505 129" fill="none" stroke="rgb(0, 0, 0)" stroke-width="2" stroke-miterlimit="10" pointer-events="stroke"/><ellipse cx="406" cy="214" rx="3" ry="3" fill="none" stroke="rgb(0, 0, 0)" stroke-width="2" pointer-events="all"/><path d="M 410.5 227.5 L 406 218.5 L 401.5 227.5 M 406 218.5 L 406 227.5" fill="none" stroke="rgb(0, 0, 0)" stroke-width="2" stroke-miterlimit="10" pointer-events="all"/><path d="M 509.5 133.5 L 500.5 133.5" fill="none" stroke="rgb(0, 0, 0)" stroke-width="2" stroke-miterlimit="10" pointer-events="all"/><path d="M 374.03 300.15 L 374.01 308.82 Q 374 317.5 364 317.5 L 301 317.5 Q 291 317.5 291 307.5 L 291 282.5 Q 291 272.5 301 272.5 L 361 272.5" fill="none" stroke="rgb(0, 0, 0)" stroke-width="2" stroke-miterlimit="10" pointer-events="stroke"/><ellipse cx="374.03" cy="296.65" rx="3" ry="3" fill="none" stroke="rgb(0, 0, 0)" stroke-width="2" pointer-events="all"/><path d="M 369.55 283.14 L 374.04 292.15 L 378.55 283.16 M 374.04 292.15 L 374.05 283.15" fill="none" stroke="rgb(0, 0, 0)" stroke-width="2" stroke-miterlimit="10" pointer-events="all"/><path d="M 356.5 277 L 356.5 268" fill="none" stroke="rgb(0, 0, 0)" stroke-width="2" stroke-miterlimit="10" pointer-events="all"/><g transform="translate(-0.5 -0.5)"><switch><foreignObject pointer-events="none" width="100%" height="100%" requiredFeatures="http://www.w3.org/TR/SVG11/feature#Extensibility" style="overflow: visible; text-align: left;"><div xmlns="http://www.w3.org/1999/xhtml" style="display: flex; align-items: unsafe center; justify-content: unsafe center; width: 1px; height: 1px; padding-top: 308px; margin-left: 331px;"><div data-drawio-colors="color: #CCCCCC; " style="box-sizing: border-box; font-size: 0px; text-align: center;"><div style="display: inline-block; font-size: 16px; font-family: Helvetica; color: rgb(204, 204, 204); line-height: 1.2; pointer-events: all; white-space: nowrap;">mentor</div></div></div></foreignObject><text x="331" y="312" fill="#CCCCCC" font-family="Helvetica" font-size="16px" text-anchor="middle">mentor</text></switch></g><path d="M 361 242.5 C 361 234.22 381.15 227.5 406 227.5 C 417.93 227.5 429.38 229.08 437.82 231.89 C 446.26 234.71 451 238.52 451 242.5 L 451 272.5 C 451 280.78 430.85 287.5 406 287.5 C 381.15 287.5 361 280.78 361 272.5 Z" fill="rgb(255, 255, 255)" stroke="rgb(0, 0, 0)" stroke-miterlimit="10" pointer-events="all"/><path d="M 451 242.5 C 451 250.78 430.85 257.5 406 257.5 C 381.15 257.5 361 250.78 361 242.5" fill="none" stroke="rgb(0, 0, 0)" stroke-miterlimit="10" pointer-events="all"/><g transform="translate(-0.5 -0.5)"><switch><foreignObject pointer-events="none" width="100%" height="100%" requiredFeatures="http://www.w3.org/TR/SVG11/feature#Extensibility" style="overflow: visible; text-align: left;"><div xmlns="http://www.w3.org/1999/xhtml" style="display: flex; align-items: unsafe center; justify-content: unsafe center; width: 88px; height: 1px; padding-top: 269px; margin-left: 362px;"><div data-drawio-colors="color: rgb(0, 0, 0); " style="box-sizing: border-box; font-size: 0px; text-align: center;"><div style="display: inline-block; font-size: 12px; font-family: Helvetica; color: rgb(0, 0, 0); line-height: 1.2; pointer-events: all; white-space: normal; overflow-wrap: normal;">Profile</div></div></div></foreignObject><text x="406" y="273" fill="rgb(0, 0, 0)" font-family="Helvetica" font-size="12px" text-anchor="middle">Profile</text></switch></g><path d="M 491 600 C 491 591.72 511.15 585 536 585 C 547.93 585 559.38 586.58 567.82 589.39 C 576.26 592.21 581 596.02 581 600 L 581 630 C 581 638.28 560.85 645 536 645 C 511.15 645 491 638.28 491 630 Z" fill="rgb(255, 255, 255)" stroke="rgb(0, 0, 0)" stroke-miterlimit="10" pointer-events="all"/><path d="M 581 600 C 581 608.28 560.85 615 536 615 C 511.15 615 491 608.28 491 600" fill="none" stroke="rgb(0, 0, 0)" stroke-miterlimit="10" pointer-events="all"/><g transform="translate(-0.5 -0.5)"><switch><foreignObject pointer-events="none" width="100%" height="100%" requiredFeatures="http://www.w3.org/TR/SVG11/feature#Extensibility" style="overflow: visible; text-align: left;"><div xmlns="http://www.w3.org/1999/xhtml" style="display: flex; align-items: unsafe center; justify-content: unsafe center; width: 88px; height: 1px; padding-top: 627px; margin-left: 492px;"><div data-drawio-colors="color: rgb(0, 0, 0); " style="box-sizing: border-box; font-size: 0px; text-align: center;"><div style="display: inline-block; font-size: 12px; font-family: Helvetica; color: rgb(0, 0, 0); line-height: 1.2; pointer-events: all; white-space: normal; overflow-wrap: normal;">Encounter</div></div></div></foreignObject><text x="536" y="630" fill="rgb(0, 0, 0)" font-family="Helvetica" font-size="12px" text-anchor="middle">Encounter</text></switch></g><path d="M 535 695 L 535 680 Q 535 670 535.16 665.99 L 535.32 661.99" fill="none" stroke="rgb(0, 0, 0)" stroke-width="2" stroke-miterlimit="10" pointer-events="stroke"/><path d="M 530.5 690.5 L 539.5 690.5" fill="none" stroke="rgb(0, 0, 0)" stroke-width="2" stroke-miterlimit="10" pointer-events="all"/><ellipse cx="535.46" cy="658.49" rx="3" ry="3" fill="none" stroke="rgb(0, 0, 0)" stroke-width="2" pointer-events="all"/><path d="M 531.5 644.82 L 535.64 653.99 L 540.5 645.18 M 535.64 653.99 L 536 645" fill="none" stroke="rgb(0, 0, 0)" stroke-width="2" stroke-miterlimit="10" pointer-events="all"/><path d="M 490 710 C 490 701.72 510.15 695 535 695 C 546.93 695 558.38 696.58 566.82 699.39 C 575.26 702.21 580 706.02 580 710 L 580 740 C 580 748.28 559.85 755 535 755 C 510.15 755 490 748.28 490 740 Z" fill="rgb(255, 255, 255)" stroke="rgb(0, 0, 0)" stroke-miterlimit="10" pointer-events="all"/><path d="M 580 710 C 580 718.28 559.85 725 535 725 C 510.15 725 490 718.28 490 710" fill="none" stroke="rgb(0, 0, 0)" stroke-miterlimit="10" pointer-events="all"/><g transform="translate(-0.5 -0.5)"><switch><foreignObject pointer-events="none" width="100%" height="100%" requiredFeatures="http://www.w3.org/TR/SVG11/feature#Extensibility" style="overflow: visible; text-align: left;"><div xmlns="http://www.w3.org/1999/xhtml" style="display: flex; align-items: unsafe center; justify-content: unsafe center; width: 88px; height: 1px; padding-top: 735px; margin-left: 491px;"><div data-drawio-colors="color: rgb(0, 0, 0); " style="box-sizing: border-box; font-size: 0px; text-align: center;"><div style="display: inline-block; font-size: 12px; font-family: Helvetica; color: rgb(0, 0, 0); line-height: 1.2; pointer-events: all; white-space: normal; overflow-wrap: normal;">Plan</div></div></div></foreignObject><text x="535" y="739" fill="rgb(0, 0, 0)" font-family="Helvetica" font-size="12px" text-anchor="middle">Plan</text></switch></g><path d="M 710 245 C 710 236.72 730.15 230 755 230 C 766.93 230 778.38 231.58 786.82 234.39 C 795.26 237.21 800 241.02 800 245 L 800 275 C 800 283.28 779.85 290 755 290 C 730.15 290 710 283.28 710 275 Z" fill="rgb(255, 255, 255)" stroke="rgb(0, 0, 0)" stroke-miterlimit="10" pointer-events="all"/><path d="M 800 245 C 800 253.28 779.85 260 755 260 C 730.15 260 710 253.28 710 245" fill="none" stroke="rgb(0, 0, 0)" stroke-miterlimit="10" pointer-events="all"/><g transform="translate(-0.5 -0.5)"><switch><foreignObject pointer-events="none" width="100%" height="100%" requiredFeatures="http://www.w3.org/TR/SVG11/feature#Extensibility" style="overflow: visible; text-align: left;"><div xmlns="http://www.w3.org/1999/xhtml" style="display: flex; align-items: unsafe center; justify-content: unsafe center; width: 88px; height: 1px; padding-top: 272px; margin-left: 711px;"><div data-drawio-colors="color: rgb(0, 0, 0); " style="box-sizing: border-box; font-size: 0px; text-align: center;"><div style="display: inline-block; font-size: 12px; font-family: Helvetica; color: rgb(0, 0, 0); line-height: 1.2; pointer-events: all; white-space: normal; overflow-wrap: normal;">Subscription</div></div></div></foreignObject><text x="755" y="275" fill="rgb(0, 0, 0)" font-family="Helvetica" font-size="12px" text-anchor="middle">Subscription</text></switch></g><path d="M 505 129 L 505 169.5 Q 505 179.5 515 179.5 L 635 179.5 Q 645 179.5 645 189.5 L 645 213" fill="none" stroke="rgb(0, 0, 0)" stroke-width="2" stroke-miterlimit="10" pointer-events="stroke"/><path d="M 509.5 133.5 L 500.5 133.5" fill="none" stroke="rgb(0, 0, 0)" stroke-width="2" stroke-miterlimit="10" pointer-events="all"/><ellipse cx="645" cy="216.5" rx="3" ry="3" fill="none" stroke="rgb(0, 0, 0)" stroke-width="2" pointer-events="all"/><path d="M 649.5 230 L 645 221 L 640.5 230 M 645 221 L 645 230" fill="none" stroke="rgb(0, 0, 0)" stroke-width="2" stroke-miterlimit="10" pointer-events="all"/><path d="M 505 129 L 505 169.5 Q 505 179.5 515 179.5 L 741.25 179.5 Q 751.25 179.5 751.24 189.5 L 751.23 212.88" fill="none" stroke="rgb(0, 0, 0)" stroke-width="2" stroke-miterlimit="10" pointer-events="stroke"/><path d="M 509.5 133.5 L 500.5 133.5" fill="none" stroke="rgb(0, 0, 0)" stroke-width="2" stroke-miterlimit="10" pointer-events="all"/><ellipse cx="751.23" cy="216.38" rx="3" ry="3" fill="none" stroke="rgb(0, 0, 0)" stroke-width="2" pointer-events="all"/><path d="M 755.72 229.88 L 751.23 220.88 L 746.72 229.88 M 751.23 220.88 L 751.22 229.88" fill="none" stroke="rgb(0, 0, 0)" stroke-width="2" stroke-miterlimit="10" pointer-events="all"/><path d="M 505 129 L 505 169.5 Q 505 179.5 515 179.5 L 855 179.5 Q 865 179.5 865 189.5 L 865 213" fill="none" stroke="rgb(0, 0, 0)" stroke-width="2" stroke-miterlimit="10" pointer-events="stroke"/><path d="M 509.5 133.5 L 500.5 133.5" fill="none" stroke="rgb(0, 0, 0)" stroke-width="2" stroke-miterlimit="10" pointer-events="all"/><ellipse cx="865" cy="216.5" rx="3" ry="3" fill="none" stroke="rgb(0, 0, 0)" stroke-width="2" pointer-events="all"/><path d="M 869.5 230 L 865 221 L 860.5 230 M 865 221 L 865 230" fill="none" stroke="rgb(0, 0, 0)" stroke-width="2" stroke-miterlimit="10" pointer-events="all"/><path d="M 460 99 L 394.75 99 Q 384.75 99 384.75 109 L 384.76 229.18" fill="none" stroke="rgb(0, 0, 0)" stroke-width="2" stroke-miterlimit="10" pointer-events="stroke"/><path d="M 455.5 103.5 L 455.5 94.5" fill="none" stroke="rgb(0, 0, 0)" stroke-width="2" stroke-miterlimit="10" pointer-events="all"/><path d="M 380.26 224.68 L 389.26 224.68" fill="none" stroke="rgb(0, 0, 0)" stroke-width="2" stroke-miterlimit="10" pointer-events="all"/><g transform="translate(-0.5 -0.5)"><switch><foreignObject pointer-events="none" width="100%" height="100%" requiredFeatures="http://www.w3.org/TR/SVG11/feature#Extensibility" style="overflow: visible; text-align: left;"><div xmlns="http://www.w3.org/1999/xhtml" style="display: flex; align-items: unsafe center; justify-content: unsafe center; width: 1px; height: 1px; padding-top: 104px; margin-left: 425px;"><div data-drawio-colors="color: #CCCCCC; " style="box-sizing: border-box; font-size: 0px; text-align: center;"><div style="display: inline-block; font-size: 32px; font-family: Helvetica; color: rgb(204, 204, 204); line-height: 1.2; pointer-events: all; white-space: nowrap;"><span style="font-size: 16px;">primary</span></div></div></div></foreignObject><text x="425" y="113" fill="#CCCCCC" font-family="Helvetica" font-size="32px" text-anchor="middle">primary</text></switch></g><path d="M 460 84 C 460 75.72 480.15 69 505 69 C 516.93 69 528.38 70.58 536.82 73.39 C 545.26 76.21 550 80.02 550 84 L 550 114 C 550 122.28 529.85 129 505 129 C 480.15 129 460 122.28 460 114 Z" fill="rgb(255, 255, 255)" stroke="rgb(0, 0, 0)" stroke-miterlimit="10" pointer-events="all"/><path d="M 550 84 C 550 92.28 529.85 99 505 99 C 480.15 99 460 92.28 460 84" fill="none" stroke="rgb(0, 0, 0)" stroke-miterlimit="10" pointer-events="all"/><g transform="translate(-0.5 -0.5)"><switch><foreignObject pointer-events="none" width="100%" height="100%" requiredFeatures="http://www.w3.org/TR/SVG11/feature#Extensibility" style="overflow: visible; text-align: left;"><div xmlns="http://www.w3.org/1999/xhtml" style="display: flex; align-items: unsafe center; justify-content: unsafe center; width: 88px; height: 1px; padding-top: 111px; margin-left: 461px;"><div data-drawio-colors="color: rgb(0, 0, 0); " style="box-sizing: border-box; font-size: 0px; text-align: center;"><div style="display: inline-block; font-size: 12px; font-family: Helvetica; color: rgb(0, 0, 0); line-height: 1.2; pointer-events: all; white-space: normal; overflow-wrap: normal;">Customer</div></div></div></foreignObject><text x="505" y="114" fill="rgb(0, 0, 0)" font-family="Helvetica" font-size="12px" text-anchor="middle">Customer</text></switch></g><path d="M 361 438 C 361 429.72 381.15 423 406 423 C 417.93 423 429.38 424.58 437.82 427.39 C 446.26 430.21 451 434.02 451 438 L 451 468 C 451 476.28 430.85 483 406 483 C 381.15 483 361 476.28 361 468 Z" fill="rgb(255, 255, 255)" stroke="rgb(0, 0, 0)" stroke-miterlimit="10" pointer-events="none"/><path d="M 451 438 C 451 446.28 430.85 453 406 453 C 381.15 453 361 446.28 361 438" fill="none" stroke="rgb(0, 0, 0)" stroke-miterlimit="10" pointer-events="none"/><g transform="translate(-0.5 -0.5)"><switch><foreignObject pointer-events="none" width="100%" height="100%" requiredFeatures="http://www.w3.org/TR/SVG11/feature#Extensibility" style="overflow: visible; text-align: left;"><div xmlns="http://www.w3.org/1999/xhtml" style="display: flex; align-items: unsafe center; justify-content: unsafe center; width: 88px; height: 1px; padding-top: 463px; margin-left: 362px;"><div data-drawio-colors="color: rgb(0, 0, 0); " style="box-sizing: border-box; font-size: 0px; text-align: center;"><div style="display: inline-block; font-size: 12px; font-family: Helvetica; color: rgb(0, 0, 0); line-height: 1.2; pointer-events: none; white-space: normal; overflow-wrap: normal;">Rating</div></div></div></foreignObject><text x="406" y="467" fill="rgb(0, 0, 0)" font-family="Helvetica" font-size="12px" text-anchor="middle">Rating</text></switch></g><path d="M 361 408 C 361 399.72 381.15 393 406 393 C 417.93 393 429.38 394.58 437.82 397.39 C 446.26 400.21 451 404.02 451 408 L 451 438 C 451 446.28 430.85 453 406 453 C 381.15 453 361 446.28 361 438 Z" fill="rgb(255, 255, 255)" stroke="rgb(0, 0, 0)" stroke-miterlimit="10" pointer-events="none"/><path d="M 451 408 C 451 416.28 430.85 423 406 423 C 381.15 423 361 416.28 361 408" fill="none" stroke="rgb(0, 0, 0)" stroke-miterlimit="10" pointer-events="none"/><g transform="translate(-0.5 -0.5)"><switch><foreignObject pointer-events="none" width="100%" height="100%" requiredFeatures="http://www.w3.org/TR/SVG11/feature#Extensibility" style="overflow: visible; text-align: left;"><div xmlns="http://www.w3.org/1999/xhtml" style="display: flex; align-items: unsafe center; justify-content: unsafe center; width: 88px; height: 1px; padding-top: 433px; margin-left: 362px;"><div data-drawio-colors="color: rgb(0, 0, 0); " style="box-sizing: border-box; font-size: 0px; text-align: center;"><div style="display: inline-block; font-size: 12px; font-family: Helvetica; color: rgb(0, 0, 0); line-height: 1.2; pointer-events: none; white-space: normal; overflow-wrap: normal;">Note</div></div></div></foreignObject><text x="406" y="437" fill="rgb(0, 0, 0)" font-family="Helvetica" font-size="12px" text-anchor="middle">Note</text></switch></g><path d="M 760 585 C 760 576.72 780.15 570 805 570 C 816.93 570 828.38 571.58 836.82 574.39 C 845.26 577.21 850 581.02 850 585 L 850 615 C 850 623.28 829.85 630 805 630 C 780.15 630 760 623.28 760 615 Z" fill="#a20025" stroke="#6f0000" stroke-miterlimit="10" pointer-events="none"/><path d="M 850 585 C 850 593.28 829.85 600 805 600 C 780.15 600 760 593.28 760 585" fill="none" stroke="#6f0000" stroke-miterlimit="10" pointer-events="none"/><g transform="translate(-0.5 -0.5)"><switch><foreignObject pointer-events="none" width="100%" height="100%" requiredFeatures="http://www.w3.org/TR/SVG11/feature#Extensibility" style="overflow: visible; text-align: left;"><div xmlns="http://www.w3.org/1999/xhtml" style="display: flex; align-items: unsafe center; justify-content: unsafe center; width: 88px; height: 1px; padding-top: 612px; margin-left: 761px;"><div data-drawio-colors="color: #ffffff; " style="box-sizing: border-box; font-size: 0px; text-align: center;"><div style="display: inline-block; font-size: 12px; font-family: Helvetica; color: rgb(255, 255, 255); line-height: 1.2; pointer-events: none; white-space: normal; overflow-wrap: normal;">Versions</div></div></div></foreignObject><text x="805" y="615" fill="#ffffff" font-family="Helvetica" font-size="12px" text-anchor="middle">Versions</text></switch></g><path d="M 760 545 C 760 536.72 780.15 530 805 530 C 816.93 530 828.38 531.58 836.82 534.39 C 845.26 537.21 850 541.02 850 545 L 850 575 C 850 583.28 829.85 590 805 590 C 780.15 590 760 583.28 760 575 Z" fill="#a20025" stroke="#6f0000" stroke-miterlimit="10" pointer-events="none"/><path d="M 850 545 C 850 553.28 829.85 560 805 560 C 780.15 560 760 553.28 760 545" fill="none" stroke="#6f0000" stroke-miterlimit="10" pointer-events="none"/><g transform="translate(-0.5 -0.5)"><switch><foreignObject pointer-events="none" width="100%" height="100%" requiredFeatures="http://www.w3.org/TR/SVG11/feature#Extensibility" style="overflow: visible; text-align: left;"><div xmlns="http://www.w3.org/1999/xhtml" style="display: flex; align-items: unsafe center; justify-content: unsafe center; width: 88px; height: 1px; padding-top: 570px; margin-left: 761px;"><div data-drawio-colors="color: #ffffff; " style="box-sizing: border-box; font-size: 0px; text-align: center;"><div style="display: inline-block; font-size: 12px; font-family: Helvetica; color: rgb(255, 255, 255); line-height: 1.2; pointer-events: none; white-space: normal; overflow-wrap: normal;">Enumerators</div></div></div></foreignObject><text x="805" y="574" fill="#ffffff" font-family="Helvetica" font-size="12px" text-anchor="middle">Enumerators</text></switch></g><path d="M 434 94 L 444 99 L 434 104 Z" fill="#ffff88" stroke="#36393d" stroke-miterlimit="10" transform="rotate(-180,439,99)" pointer-events="none"/><path d="M 500 147 L 510 152 L 500 157 Z" fill="#ffff88" stroke="#36393d" stroke-miterlimit="10" transform="rotate(90,505,152)" pointer-events="none"/><path d="M 401 358.5 L 411 363.5 L 401 368.5 Z" fill="#ffff88" stroke="#36393d" stroke-miterlimit="10" transform="rotate(-90,406,363.5)" pointer-events="none"/><path d="M 401 508.5 L 411 513.5 L 401 518.5 Z" fill="#ffff88" stroke="#36393d" stroke-miterlimit="10" transform="rotate(90,406,513.5)" pointer-events="none"/><path d="M 530 670 L 540 675 L 530 680 Z" fill="#ffff88" stroke="#36393d" stroke-miterlimit="10" transform="rotate(90,535,675)" pointer-events="none"/><path d="M 281 467 L 291 472 L 281 477 Z" fill="#ffff88" stroke="#36393d" stroke-miterlimit="10" transform="rotate(90,286,472)" pointer-events="none"/><path d="M 101 468 L 111 473 L 101 478 Z" fill="#ffff88" stroke="#36393d" stroke-miterlimit="10" transform="rotate(90,106,473)" pointer-events="none"/><path d="M 181 610 L 191 615 L 181 620 Z" fill="#ffff88" stroke="#36393d" stroke-miterlimit="10" pointer-events="none"/><path d="M 191 365.5 L 201 370.5 L 191 375.5 Z" fill="#ffff88" stroke="#36393d" stroke-miterlimit="10" transform="rotate(-90,196,370.5)" pointer-events="none"/><path d="M 286 287.5 L 296 292.5 L 286 297.5 Z" fill="#ffff88" stroke="#36393d" stroke-miterlimit="10" transform="rotate(-90,291,292.5)" pointer-events="none"/><path d="M 322 208.5 L 332 213.5 L 322 218.5 Z" fill="#ffff88" stroke="#36393d" stroke-miterlimit="10" transform="rotate(-145,327,213.5)" pointer-events="none"/><path d="M 437.95 283.15 L 437.99 307 Q 438 317 448 317 L 526 317 Q 536 317 536 327 L 536 585" fill="none" stroke="rgb(0, 0, 0)" stroke-width="2" stroke-miterlimit="10" pointer-events="none"/><path d="M 442.46 287.64 L 433.46 287.66 M 442.46 292.14 L 433.46 292.16" fill="none" stroke="rgb(0, 0, 0)" stroke-width="2" stroke-miterlimit="10" pointer-events="none"/><path d="M 531.5 580.5 L 540.5 580.5" fill="none" stroke="rgb(0, 0, 0)" stroke-width="2" stroke-miterlimit="10" pointer-events="none"/><path d="M 531 558 L 541 563 L 531 568 Z" fill="#ffff88" stroke="#36393d" stroke-miterlimit="10" transform="rotate(-90,536,563)" pointer-events="none"/><path d="M 401 192 L 411 197 L 401 202 Z" fill="#ffff88" stroke="#36393d" stroke-miterlimit="10" transform="rotate(-90,406,197)" pointer-events="none"/></g><switch><g requiredFeatures="http://www.w3.org/TR/SVG11/feature#Extensibility"/><a transform="translate(0,-5)" xlink:href="https://www.diagrams.net/doc/faq/svg-export-text-problems" target="_blank"><text text-anchor="middle" font-size="10px" x="50%" y="100%">Text is not SVG - cannot display</text></a></switch></svg>